M48
;DRILL file {Pcbnew (2012-apr-16-27)-stable} date So 08 Sep 2013 13:16:30 CEST
;FORMAT={-:-/ absolute / inch / decimal}
FMAT,2
INCH,TZ
T1C0.012
T2C0.020
T3C0.028
T4C0.032
%
G90
G05
M72
T1
X5.550Y3.600
X5.580Y3.490
X5.590Y3.360
X5.615Y4.050
X5.620Y4.390
X5.620Y4.425
X5.620Y4.465
X5.620Y4.500
X5.635Y3.995
X5.655Y4.050
X5.670Y3.880
X5.680Y3.525
X5.690Y3.240
X5.690Y3.280
X5.690Y4.365
X5.695Y4.050
X5.705Y3.880
X5.710Y3.385
X5.720Y3.220
X5.730Y3.280
X5.735Y4.065
X5.740Y3.540
X5.740Y3.880
X5.745Y4.105
X5.745Y4.175
X5.770Y3.560
X5.775Y3.880
X5.795Y3.385
X5.795Y3.510
X5.800Y3.720
X5.800Y3.800
X5.800Y4.510
X5.820Y3.220
X5.825Y3.880
X5.830Y3.585
X5.845Y3.615
X5.855Y4.175
X5.860Y3.510
X5.860Y3.880
X5.880Y3.390
X5.885Y4.050
X5.895Y3.880
X5.900Y3.430
X5.915Y3.475
X5.920Y3.570
X5.930Y3.280
X5.930Y3.880
X5.945Y4.050
X5.950Y3.715
X5.985Y4.050
X5.990Y4.350
X6.020Y4.180
X6.050Y4.520
T2
X5.595Y4.235
X5.600Y3.210
X5.600Y3.780
X5.860Y4.100
X5.970Y3.060
X5.980Y3.340
X6.000Y3.660
X6.000Y3.780
X6.030Y3.530
X6.040Y3.350
T3
X5.595Y3.150
X5.645Y3.150
X5.695Y3.150
X5.745Y3.150
X5.795Y3.150
X5.845Y3.150
T4
X5.500Y3.150
X5.500Y3.250
X5.500Y3.350
X5.500Y3.450
X5.500Y3.550
X5.500Y3.650
X5.500Y3.750
X5.500Y3.850
X5.500Y3.950
X5.500Y4.050
X5.500Y4.150
X5.500Y4.250
X5.500Y4.350
X5.500Y4.450
X6.100Y3.150
X6.100Y3.250
X6.100Y3.350
X6.100Y3.450
X6.100Y3.550
X6.100Y3.650
X6.100Y3.750
X6.100Y3.850
X6.100Y3.950
X6.100Y4.050
X6.100Y4.150
X6.100Y4.250
X6.100Y4.350
X6.100Y4.450
T0
M30
