G04 (created by PCBNEW-RS274X (2012-apr-16-27)-stable) date So 08 Sep 2013 13:16:25 CEST*
G01*
G70*
G90*
%MOIN*%
G04 Gerber Fmt 3.4, Leading zero omitted, Abs format*
%FSLAX34Y34*%
G04 APERTURE LIST*
%ADD10C,0.006000*%
%ADD11C,0.005000*%
%ADD12R,0.055000X0.055000*%
%ADD13C,0.055000*%
%ADD14R,0.020000X0.030000*%
%ADD15R,0.010000X0.040000*%
%ADD16R,0.040000X0.010000*%
%ADD17R,0.050000X0.015000*%
%ADD18R,0.040000X0.040000*%
%ADD19C,0.040000*%
%ADD20R,0.045000X0.025000*%
%ADD21R,0.015700X0.035400*%
%ADD22R,0.035400X0.015700*%
%ADD23C,0.023600*%
%ADD24C,0.039400*%
%ADD25C,0.035000*%
%ADD26C,0.008000*%
%ADD27C,0.020000*%
%ADD28C,0.010000*%
%ADD29C,0.012000*%
G04 APERTURE END LIST*
G54D10*
G54D11*
X57318Y-34101D02*
X57432Y-34101D01*
X57375Y-34301D02*
X57375Y-34101D01*
X57537Y-34101D02*
X57575Y-34101D01*
X57594Y-34110D01*
X57613Y-34130D01*
X57622Y-34168D01*
X57622Y-34234D01*
X57613Y-34272D01*
X57594Y-34291D01*
X57575Y-34301D01*
X57537Y-34301D01*
X57518Y-34291D01*
X57499Y-34272D01*
X57489Y-34234D01*
X57489Y-34168D01*
X57499Y-34130D01*
X57518Y-34110D01*
X57537Y-34101D01*
X57709Y-34301D02*
X57709Y-34101D01*
X57785Y-34101D01*
X57804Y-34110D01*
X57813Y-34120D01*
X57823Y-34139D01*
X57823Y-34168D01*
X57813Y-34187D01*
X57804Y-34196D01*
X57785Y-34206D01*
X57709Y-34206D01*
G54D12*
X55000Y-31500D03*
G54D13*
X55000Y-32500D03*
X55000Y-33500D03*
X55000Y-34500D03*
X55000Y-35500D03*
X55000Y-36500D03*
X55000Y-37500D03*
X55000Y-38500D03*
X55000Y-39500D03*
X55000Y-40500D03*
X55000Y-41500D03*
X55000Y-42500D03*
X55000Y-43500D03*
X55000Y-44500D03*
X61000Y-44500D03*
X61000Y-43500D03*
X61000Y-42500D03*
X61000Y-41500D03*
X61000Y-40500D03*
X61000Y-39500D03*
X61000Y-38500D03*
X61000Y-37500D03*
X61000Y-36500D03*
X61000Y-35500D03*
X61000Y-34500D03*
X61000Y-33500D03*
X61000Y-32500D03*
X61000Y-31500D03*
G54D14*
X60075Y-31000D03*
X59325Y-31000D03*
X60075Y-32000D03*
X59700Y-31000D03*
X59325Y-32000D03*
G54D15*
X59080Y-33328D03*
X58880Y-33328D03*
X58690Y-33328D03*
X58490Y-33328D03*
X58290Y-33328D03*
X58100Y-33328D03*
X57900Y-33328D03*
X57700Y-33328D03*
X57510Y-33328D03*
X57310Y-33328D03*
X57110Y-33328D03*
X56910Y-33328D03*
G54D16*
X59672Y-36081D03*
X59672Y-35881D03*
X59672Y-35691D03*
X59672Y-35491D03*
X59672Y-35291D03*
X59672Y-35101D03*
X59672Y-34901D03*
X59672Y-34701D03*
X59672Y-34511D03*
X59672Y-34311D03*
X59672Y-34111D03*
X59672Y-33911D03*
X56328Y-33919D03*
X56328Y-34119D03*
X56328Y-34309D03*
X56328Y-34509D03*
X56328Y-34709D03*
X56328Y-34899D03*
X56328Y-35099D03*
X56328Y-35299D03*
X56328Y-35489D03*
X56328Y-35689D03*
X56328Y-35889D03*
X56328Y-36089D03*
G54D15*
X56919Y-36672D03*
X57119Y-36672D03*
X57309Y-36672D03*
X57509Y-36672D03*
X57709Y-36672D03*
X57899Y-36672D03*
X58099Y-36672D03*
X58299Y-36672D03*
X58489Y-36672D03*
X58689Y-36672D03*
X58889Y-36672D03*
X59089Y-36672D03*
G54D17*
X56898Y-43352D03*
X56898Y-41048D03*
X59102Y-43352D03*
X59102Y-41048D03*
X59102Y-43096D03*
X59102Y-42840D03*
X59102Y-42584D03*
X59102Y-42328D03*
X59102Y-42072D03*
X59102Y-41816D03*
X59102Y-41560D03*
X59102Y-41304D03*
X56898Y-41304D03*
X56898Y-41560D03*
X56898Y-41816D03*
X56898Y-42072D03*
X56898Y-42328D03*
X56898Y-42584D03*
X56898Y-42840D03*
X56898Y-43096D03*
G54D18*
X58450Y-31500D03*
G54D19*
X57950Y-31500D03*
X57450Y-31500D03*
X56950Y-31500D03*
X56450Y-31500D03*
X55950Y-31500D03*
G54D20*
X60000Y-36900D03*
X60000Y-37500D03*
X55900Y-43350D03*
X55900Y-42750D03*
X60000Y-32450D03*
X60000Y-33050D03*
G54D21*
X56728Y-39935D03*
X57043Y-39935D03*
X57672Y-39935D03*
X57357Y-39935D03*
X57357Y-39265D03*
X57672Y-39265D03*
X57043Y-39265D03*
X56728Y-39265D03*
X58328Y-39935D03*
X58643Y-39935D03*
X59272Y-39935D03*
X58957Y-39935D03*
X58957Y-39265D03*
X59272Y-39265D03*
X58643Y-39265D03*
X58328Y-39265D03*
X57672Y-37665D03*
X57357Y-37665D03*
X56728Y-37665D03*
X57043Y-37665D03*
X57043Y-38335D03*
X56728Y-38335D03*
X57357Y-38335D03*
X57672Y-38335D03*
X59272Y-37665D03*
X58957Y-37665D03*
X58328Y-37665D03*
X58643Y-37665D03*
X58643Y-38335D03*
X58328Y-38335D03*
X58957Y-38335D03*
X59272Y-38335D03*
G54D22*
X56565Y-44028D03*
X56565Y-44343D03*
X56565Y-44972D03*
X56565Y-44657D03*
X57235Y-44657D03*
X57235Y-44972D03*
X57235Y-44343D03*
X57235Y-44028D03*
X58765Y-44028D03*
X58765Y-44343D03*
X58765Y-44972D03*
X58765Y-44657D03*
X59435Y-44657D03*
X59435Y-44972D03*
X59435Y-44343D03*
X59435Y-44028D03*
G54D20*
X56000Y-33050D03*
X56000Y-32450D03*
X56000Y-36900D03*
X56000Y-37500D03*
G54D23*
X57450Y-41050D03*
X56900Y-43650D03*
X56200Y-45000D03*
X56200Y-44650D03*
X56200Y-44250D03*
X56200Y-43900D03*
X57700Y-35600D03*
X57400Y-35400D03*
X59500Y-37150D03*
X56800Y-35250D03*
X56900Y-32800D03*
X59000Y-34300D03*
X55800Y-34900D03*
G54D24*
X60000Y-37800D03*
G54D23*
X58000Y-37200D03*
X59150Y-34750D03*
G54D24*
X56000Y-37800D03*
X59700Y-30600D03*
X56000Y-32100D03*
G54D23*
X58000Y-38000D03*
X60200Y-41800D03*
X60500Y-45200D03*
X58450Y-36150D03*
X56350Y-39950D03*
X59900Y-43500D03*
G54D24*
X55950Y-42350D03*
G54D23*
X58600Y-35100D03*
G54D24*
X59800Y-33400D03*
G54D23*
X57950Y-33850D03*
X57950Y-35100D03*
X57100Y-33850D03*
X55500Y-36000D03*
X57350Y-40650D03*
G54D24*
X60300Y-35300D03*
G54D25*
X58600Y-41000D03*
G54D23*
X59300Y-32800D03*
X58000Y-45100D03*
X58200Y-32200D03*
X57450Y-41750D03*
X57750Y-38800D03*
X58950Y-38800D03*
X59450Y-40500D03*
X58250Y-38800D03*
X58550Y-41750D03*
X58800Y-33900D03*
X59200Y-35700D03*
X57200Y-32200D03*
X57300Y-32800D03*
X55900Y-33600D03*
X58300Y-35850D03*
X56900Y-32400D03*
X56550Y-40500D03*
X57050Y-38800D03*
X56150Y-40500D03*
X56700Y-38800D03*
X57400Y-38800D03*
X56950Y-40500D03*
X59850Y-40500D03*
X59300Y-38800D03*
X58850Y-40500D03*
X58600Y-38800D03*
G54D24*
X60000Y-36600D03*
X60400Y-33500D03*
G54D26*
X55900Y-43650D02*
X56900Y-43650D01*
G54D27*
X56200Y-45500D02*
X61600Y-45500D01*
X61600Y-45500D02*
X61600Y-36500D01*
X59600Y-31500D02*
X59325Y-31225D01*
X60075Y-31500D02*
X59600Y-31500D01*
X55900Y-45200D02*
X56200Y-45500D01*
X61000Y-31500D02*
X60075Y-31500D01*
X60075Y-31000D02*
X60075Y-31500D01*
X55900Y-43350D02*
X55900Y-43650D01*
X55900Y-43650D02*
X55900Y-45200D01*
X59325Y-31225D02*
X59325Y-31000D01*
G54D28*
X56898Y-43352D02*
X55902Y-43352D01*
G54D26*
X57448Y-41048D02*
X56898Y-41048D01*
X57450Y-41050D02*
X57448Y-41048D01*
G54D28*
X55902Y-43352D02*
X55900Y-43350D01*
G54D27*
X61600Y-36500D02*
X61600Y-32100D01*
X61600Y-32100D02*
X61000Y-31500D01*
G54D26*
X60500Y-41900D02*
X60500Y-41000D01*
X60150Y-42850D02*
X60150Y-42250D01*
X59102Y-43352D02*
X59648Y-43352D01*
X59648Y-43352D02*
X60150Y-42850D01*
X60150Y-42250D02*
X60500Y-41900D01*
X60500Y-41000D02*
X61000Y-40500D01*
X61000Y-41500D02*
X60700Y-41800D01*
X60700Y-41800D02*
X60700Y-42000D01*
X60350Y-42350D02*
X60700Y-42000D01*
X59435Y-44028D02*
X59872Y-44028D01*
X60350Y-43550D02*
X60350Y-42350D01*
X59872Y-44028D02*
X60350Y-43550D01*
X60550Y-42950D02*
X61000Y-42500D01*
X60550Y-43750D02*
X60550Y-42950D01*
X59435Y-44343D02*
X59957Y-44343D01*
X59957Y-44343D02*
X60550Y-43750D01*
X61000Y-43500D02*
X60750Y-43750D01*
X60750Y-43750D02*
X60750Y-43950D01*
X60043Y-44657D02*
X60750Y-43950D01*
X59435Y-44657D02*
X60043Y-44657D01*
X60128Y-44972D02*
X60600Y-44500D01*
X60600Y-44500D02*
X61000Y-44500D01*
X59435Y-44972D02*
X60128Y-44972D01*
X56228Y-44972D02*
X56200Y-45000D01*
X56565Y-44972D02*
X56228Y-44972D01*
X56257Y-44657D02*
X56200Y-44650D01*
X56565Y-44657D02*
X56257Y-44657D01*
X56293Y-44343D02*
X56200Y-44250D01*
X56565Y-44343D02*
X56293Y-44343D01*
X56565Y-44028D02*
X56328Y-44028D01*
X56328Y-44028D02*
X56200Y-43900D01*
X57611Y-35689D02*
X57700Y-35600D01*
X56328Y-35689D02*
X57611Y-35689D01*
X57400Y-35400D02*
X57311Y-35489D01*
X57311Y-35489D02*
X56328Y-35489D01*
X59672Y-34701D02*
X60799Y-34701D01*
X60799Y-34701D02*
X61000Y-34500D01*
X60401Y-34901D02*
X61000Y-35500D01*
X59672Y-34901D02*
X60401Y-34901D01*
X61000Y-36450D02*
X60041Y-35491D01*
X60041Y-35491D02*
X59672Y-35491D01*
X61000Y-36500D02*
X61000Y-36450D01*
X61000Y-37500D02*
X60600Y-37100D01*
X60600Y-37100D02*
X60600Y-36300D01*
X59991Y-35691D02*
X60600Y-36300D01*
X59672Y-35691D02*
X59991Y-35691D01*
X59672Y-35881D02*
X59931Y-35881D01*
X61000Y-38500D02*
X60400Y-37900D01*
X60400Y-36350D02*
X59931Y-35881D01*
X60400Y-37900D02*
X60400Y-36350D01*
X59089Y-36939D02*
X59300Y-37150D01*
X59300Y-37150D02*
X59500Y-37150D01*
X59089Y-36672D02*
X59089Y-36939D01*
X56801Y-35299D02*
X56800Y-35250D01*
X56328Y-35299D02*
X56801Y-35299D01*
X56801Y-35299D02*
X56800Y-35250D01*
X55900Y-35600D02*
X55900Y-35200D01*
X55300Y-36500D02*
X55400Y-36500D01*
X55000Y-36500D02*
X55300Y-36500D01*
X55900Y-36000D02*
X55900Y-35600D01*
X56001Y-35099D02*
X56328Y-35099D01*
X55400Y-36500D02*
X55900Y-36000D01*
X55900Y-35200D02*
X56001Y-35099D01*
X56319Y-34500D02*
X56328Y-34509D01*
X55100Y-35100D02*
X55700Y-34500D01*
X55000Y-35200D02*
X55100Y-35100D01*
X55000Y-35500D02*
X55000Y-35200D01*
X55700Y-34500D02*
X56319Y-34500D01*
X55400Y-34500D02*
X55591Y-34309D01*
X55591Y-34309D02*
X56328Y-34309D01*
X55000Y-34500D02*
X55400Y-34500D01*
X55300Y-33500D02*
X55919Y-34119D01*
X55000Y-33500D02*
X55300Y-33500D01*
X55919Y-34119D02*
X56328Y-34119D01*
X56910Y-33328D02*
X56910Y-32810D01*
X56910Y-32810D02*
X56900Y-32800D01*
X59061Y-34311D02*
X59672Y-34311D01*
X59000Y-34300D02*
X59061Y-34311D01*
X59672Y-34511D02*
X59989Y-34511D01*
X59989Y-34511D02*
X61000Y-33500D01*
X59272Y-37372D02*
X58889Y-36989D01*
X59272Y-37665D02*
X59272Y-37372D01*
X58889Y-36989D02*
X58889Y-36672D01*
X58957Y-37357D02*
X58689Y-37089D01*
X58957Y-37665D02*
X58957Y-37357D01*
X58689Y-37089D02*
X58689Y-36672D01*
X58489Y-37196D02*
X58489Y-36672D01*
X58643Y-37350D02*
X58489Y-37196D01*
X58643Y-37665D02*
X58643Y-37350D01*
X58299Y-37249D02*
X58299Y-36672D01*
X58328Y-37278D02*
X58299Y-37249D01*
X58328Y-37665D02*
X58328Y-37278D01*
X57672Y-37278D02*
X57672Y-37665D01*
X57709Y-36672D02*
X57709Y-37241D01*
X57709Y-37241D02*
X57672Y-37278D01*
X57509Y-37191D02*
X57357Y-37343D01*
X57357Y-37343D02*
X57357Y-37665D01*
X57509Y-36672D02*
X57509Y-37191D01*
X57309Y-36672D02*
X57309Y-37041D01*
X57043Y-37307D02*
X57043Y-37665D01*
X57309Y-37041D02*
X57043Y-37307D01*
X57119Y-36672D02*
X57119Y-36981D01*
X57119Y-36981D02*
X56728Y-37372D01*
X56728Y-37372D02*
X56728Y-37665D01*
G54D27*
X58800Y-32800D02*
X59300Y-32800D01*
G54D29*
X58648Y-41048D02*
X58600Y-41000D01*
G54D27*
X56000Y-37700D02*
X56000Y-37500D01*
G54D28*
X58600Y-35100D02*
X58800Y-35100D01*
G54D26*
X59800Y-38000D02*
X58000Y-38000D01*
G54D28*
X59080Y-33328D02*
X59172Y-33328D01*
G54D29*
X59300Y-32900D02*
X59450Y-33050D01*
G54D26*
X58000Y-38000D02*
X58000Y-39935D01*
G54D29*
X58000Y-39935D02*
X58328Y-39935D01*
G54D27*
X55900Y-42750D02*
X55900Y-42400D01*
G54D26*
X58328Y-39935D02*
X58643Y-39935D01*
G54D28*
X57357Y-40643D02*
X57350Y-40650D01*
X58450Y-36150D02*
X58600Y-36000D01*
G54D29*
X57672Y-39935D02*
X58000Y-39935D01*
G54D28*
X58000Y-38000D02*
X58000Y-37200D01*
G54D27*
X60291Y-35291D02*
X60300Y-35300D01*
G54D29*
X55600Y-35900D02*
X55500Y-36000D01*
G54D27*
X59700Y-31000D02*
X59700Y-30600D01*
X55900Y-42400D02*
X55950Y-42350D01*
G54D26*
X57357Y-39935D02*
X57672Y-39935D01*
G54D27*
X56000Y-32450D02*
X56000Y-32100D01*
X56000Y-37800D02*
X56000Y-37700D01*
G54D28*
X59450Y-33050D02*
X60000Y-33050D01*
G54D29*
X55600Y-35100D02*
X55600Y-35900D01*
X56365Y-39935D02*
X56350Y-39950D01*
X59300Y-32800D02*
X59300Y-32900D01*
G54D28*
X58600Y-35100D02*
X57950Y-35100D01*
G54D29*
X58648Y-41048D02*
X59102Y-41048D01*
G54D28*
X56300Y-37500D02*
X56919Y-36881D01*
X59672Y-35291D02*
X60291Y-35291D01*
X57100Y-33850D02*
X57950Y-33850D01*
X57357Y-39935D02*
X57357Y-40643D01*
G54D26*
X60000Y-37800D02*
X59800Y-38000D01*
G54D28*
X56919Y-36672D02*
X56919Y-36881D01*
G54D26*
X56728Y-39935D02*
X57043Y-39935D01*
G54D28*
X56000Y-37500D02*
X56300Y-37500D01*
G54D26*
X58643Y-39935D02*
X58957Y-39935D01*
G54D28*
X58800Y-35100D02*
X59150Y-34750D01*
X55991Y-34709D02*
X55800Y-34900D01*
G54D29*
X56728Y-39935D02*
X56365Y-39935D01*
G54D28*
X59172Y-33328D02*
X59450Y-33050D01*
G54D29*
X60000Y-33200D02*
X59800Y-33400D01*
X55800Y-34900D02*
X55600Y-35100D01*
G54D26*
X58957Y-39935D02*
X59272Y-39935D01*
G54D27*
X60000Y-37500D02*
X60000Y-37800D01*
G54D26*
X57043Y-39935D02*
X57357Y-39935D01*
G54D28*
X56328Y-34709D02*
X55991Y-34709D01*
G54D29*
X60000Y-33050D02*
X60000Y-33200D01*
G54D28*
X58600Y-36000D02*
X58600Y-35100D01*
G54D27*
X58200Y-32200D02*
X58800Y-32800D01*
G54D26*
X57672Y-38722D02*
X57750Y-38800D01*
X57672Y-38878D02*
X57750Y-38800D01*
X57672Y-39265D02*
X57672Y-38878D01*
X56898Y-41560D02*
X57260Y-41560D01*
X57672Y-38335D02*
X57672Y-38722D01*
X57260Y-41560D02*
X57450Y-41750D01*
X58957Y-38793D02*
X58957Y-38335D01*
X59466Y-42584D02*
X59750Y-42300D01*
X59750Y-40800D02*
X59450Y-40500D01*
X59750Y-42300D02*
X59750Y-40800D01*
X59102Y-42584D02*
X59466Y-42584D01*
X58950Y-38800D02*
X58957Y-38793D01*
X58957Y-38807D02*
X58950Y-38800D01*
X58957Y-39265D02*
X58957Y-38807D01*
X58328Y-38878D02*
X58250Y-38800D01*
X58328Y-39265D02*
X58328Y-38878D01*
X58250Y-38800D02*
X58328Y-38722D01*
X58740Y-41560D02*
X58550Y-41750D01*
X58328Y-38722D02*
X58328Y-38335D01*
X59102Y-41560D02*
X58740Y-41560D01*
X58650Y-43200D02*
X58754Y-43096D01*
X58650Y-43650D02*
X58650Y-43200D01*
X58765Y-44028D02*
X58765Y-43765D01*
X58765Y-43765D02*
X58650Y-43650D01*
X58754Y-43096D02*
X59102Y-43096D01*
X57235Y-44972D02*
X57553Y-44972D01*
X57900Y-41825D02*
X57379Y-41304D01*
X57900Y-44625D02*
X57900Y-41825D01*
X57379Y-41304D02*
X56898Y-41304D01*
X57553Y-44972D02*
X57900Y-44625D01*
X57322Y-42072D02*
X56898Y-42072D01*
X57725Y-42475D02*
X57322Y-42072D01*
X57543Y-44657D02*
X57725Y-44475D01*
X57725Y-44475D02*
X57725Y-42475D01*
X57235Y-44657D02*
X57543Y-44657D01*
X57553Y-44247D02*
X57457Y-44343D01*
X57235Y-44343D02*
X57457Y-44343D01*
X57278Y-42328D02*
X56898Y-42328D01*
X57553Y-44247D02*
X57553Y-42603D01*
X57553Y-42603D02*
X57278Y-42328D01*
X57235Y-44028D02*
X57235Y-43765D01*
X57271Y-43096D02*
X56898Y-43096D01*
X57375Y-43625D02*
X57375Y-43200D01*
X57235Y-43765D02*
X57375Y-43625D01*
X57375Y-43200D02*
X57271Y-43096D01*
X58765Y-44972D02*
X58447Y-44972D01*
X58100Y-44625D02*
X58100Y-41850D01*
X58100Y-41850D02*
X58646Y-41304D01*
X58447Y-44972D02*
X58100Y-44625D01*
X58646Y-41304D02*
X59102Y-41304D01*
X58275Y-44475D02*
X58275Y-42475D01*
X58765Y-44657D02*
X58457Y-44657D01*
X58275Y-42475D02*
X58678Y-42072D01*
X58457Y-44657D02*
X58275Y-44475D01*
X58678Y-42072D02*
X59102Y-42072D01*
X58765Y-44343D02*
X58543Y-44343D01*
X58450Y-42550D02*
X58672Y-42328D01*
X58450Y-44250D02*
X58450Y-42550D01*
X58543Y-44343D02*
X58450Y-44250D01*
X58672Y-42328D02*
X59102Y-42328D01*
X59311Y-34111D02*
X59100Y-33900D01*
X59672Y-34111D02*
X59311Y-34111D01*
X59100Y-33900D02*
X58800Y-33900D01*
X59381Y-36081D02*
X59200Y-35900D01*
X56950Y-31500D02*
X56950Y-31950D01*
X56950Y-31950D02*
X57200Y-32200D01*
X59672Y-36081D02*
X59381Y-36081D01*
X59200Y-35900D02*
X59200Y-35700D01*
X56119Y-33919D02*
X55900Y-33700D01*
X56328Y-33919D02*
X56119Y-33919D01*
X57450Y-32650D02*
X57300Y-32800D01*
X57450Y-31500D02*
X57450Y-32650D01*
X57450Y-32650D02*
X57300Y-32800D01*
X55900Y-33700D02*
X55900Y-33600D01*
X57911Y-35889D02*
X58261Y-35889D01*
X56328Y-35889D02*
X57911Y-35889D01*
X56450Y-31950D02*
X56900Y-32400D01*
X56450Y-31500D02*
X56450Y-31950D01*
X58261Y-35889D02*
X58300Y-35850D01*
X56550Y-40500D02*
X56250Y-40800D01*
X57043Y-38807D02*
X57050Y-38800D01*
X56898Y-42584D02*
X56584Y-42584D01*
X57043Y-38793D02*
X57050Y-38800D01*
X56500Y-42500D02*
X56500Y-42000D01*
X57043Y-38335D02*
X57043Y-38793D01*
X57043Y-39265D02*
X57043Y-38807D01*
X56584Y-42584D02*
X56500Y-42500D01*
X56500Y-42000D02*
X56250Y-41750D01*
X56250Y-41750D02*
X56250Y-40800D01*
X56700Y-38800D02*
X56728Y-38772D01*
X56050Y-40600D02*
X56150Y-40500D01*
X56300Y-42550D02*
X56300Y-42050D01*
X56590Y-42840D02*
X56300Y-42550D01*
X56728Y-39265D02*
X56728Y-38828D01*
X56300Y-42050D02*
X56050Y-41800D01*
X56728Y-38828D02*
X56700Y-38800D01*
X56898Y-42840D02*
X56590Y-42840D01*
X56728Y-38772D02*
X56728Y-38335D01*
X56050Y-41800D02*
X56050Y-40600D01*
X57357Y-39265D02*
X57357Y-38843D01*
X56450Y-41700D02*
X56450Y-40900D01*
X57357Y-38843D02*
X57400Y-38800D01*
X56566Y-41816D02*
X56450Y-41700D01*
X56600Y-40750D02*
X56450Y-40900D01*
X56950Y-40500D02*
X56700Y-40750D01*
X56700Y-40750D02*
X56600Y-40750D01*
X56898Y-41816D02*
X56566Y-41816D01*
X57357Y-38335D02*
X57357Y-38757D01*
X57357Y-38757D02*
X57400Y-38800D01*
X59950Y-40600D02*
X59850Y-40500D01*
X59272Y-38828D02*
X59300Y-38800D01*
X59272Y-39265D02*
X59272Y-38828D01*
X59300Y-38800D02*
X59272Y-38772D01*
X59272Y-38772D02*
X59272Y-38335D01*
X59950Y-42400D02*
X59950Y-40600D01*
X59510Y-42840D02*
X59950Y-42400D01*
X59102Y-42840D02*
X59510Y-42840D01*
X59100Y-40750D02*
X58850Y-40500D01*
X58643Y-39265D02*
X58643Y-38843D01*
X59550Y-41700D02*
X59550Y-40850D01*
X58643Y-38757D02*
X58643Y-38335D01*
X59102Y-41816D02*
X59434Y-41816D01*
X58643Y-38843D02*
X58600Y-38800D01*
X59550Y-40850D02*
X59450Y-40750D01*
X59434Y-41816D02*
X59550Y-41700D01*
X58600Y-38800D02*
X58643Y-38757D01*
X59450Y-40750D02*
X59100Y-40750D01*
G54D27*
X55500Y-37000D02*
X55600Y-36900D01*
X54400Y-32000D02*
X54400Y-33000D01*
X55600Y-36900D02*
X56000Y-36900D01*
G54D29*
X56328Y-36272D02*
X56000Y-36600D01*
G54D27*
X54400Y-36700D02*
X54700Y-37000D01*
G54D28*
X56800Y-33800D02*
X56800Y-34800D01*
G54D27*
X54400Y-30500D02*
X54400Y-32000D01*
X54400Y-33000D02*
X54400Y-36700D01*
X58400Y-30500D02*
X54400Y-30500D01*
X54400Y-33000D02*
X55500Y-33000D01*
X55500Y-33000D02*
X55550Y-33050D01*
G54D28*
X56701Y-34899D02*
X56328Y-34899D01*
G54D29*
X56000Y-36600D02*
X56000Y-36900D01*
X59989Y-33911D02*
X60400Y-33500D01*
G54D27*
X54700Y-37000D02*
X55500Y-37000D01*
G54D28*
X56000Y-33050D02*
X56050Y-33050D01*
G54D27*
X55550Y-33050D02*
X56000Y-33050D01*
G54D28*
X56050Y-33050D02*
X56800Y-33800D01*
X56800Y-34800D02*
X56701Y-34899D01*
G54D27*
X60075Y-32000D02*
X60075Y-32225D01*
G54D29*
X56328Y-36089D02*
X56328Y-36272D01*
G54D27*
X60250Y-32450D02*
X60500Y-32700D01*
X58450Y-30550D02*
X58400Y-30500D01*
X60000Y-32450D02*
X60250Y-32450D01*
G54D28*
X59500Y-36500D02*
X59500Y-36700D01*
G54D27*
X60075Y-32225D02*
X60000Y-32300D01*
G54D28*
X59500Y-36700D02*
X59700Y-36900D01*
X59700Y-36900D02*
X60000Y-36900D01*
G54D29*
X59672Y-33911D02*
X59989Y-33911D01*
G54D27*
X60000Y-36600D02*
X60000Y-36900D01*
X58450Y-31850D02*
X58450Y-31500D01*
X60000Y-32300D02*
X60000Y-32450D01*
X60500Y-32700D02*
X60500Y-33400D01*
G54D28*
X59672Y-35101D02*
X59299Y-35101D01*
X58900Y-35900D02*
X59500Y-36500D01*
X58900Y-35500D02*
X58900Y-35900D01*
X59299Y-35101D02*
X58900Y-35500D01*
G54D27*
X60500Y-33400D02*
X60400Y-33500D01*
X58450Y-31500D02*
X58450Y-30550D01*
X60000Y-32450D02*
X59050Y-32450D01*
X59050Y-32450D02*
X58450Y-31850D01*
G54D10*
G36*
X55921Y-34905D02*
X55898Y-34920D01*
X55852Y-34951D01*
X55752Y-35052D01*
X55706Y-35119D01*
X55703Y-35132D01*
X55690Y-35200D01*
X55690Y-35600D01*
X55690Y-35913D01*
X55365Y-36237D01*
X55252Y-36124D01*
X55089Y-36056D01*
X54912Y-36056D01*
X54749Y-36123D01*
X54670Y-36202D01*
X54670Y-35798D01*
X54748Y-35876D01*
X54911Y-35944D01*
X55088Y-35944D01*
X55251Y-35877D01*
X55376Y-35752D01*
X55444Y-35589D01*
X55444Y-35412D01*
X55377Y-35249D01*
X55312Y-35184D01*
X55786Y-34710D01*
X55878Y-34710D01*
X55878Y-34796D01*
X55878Y-34809D01*
X55879Y-34809D01*
X55917Y-34900D01*
X55921Y-34904D01*
X55921Y-34905D01*
X55921Y-34905D01*
G37*
G54D28*
X55921Y-34905D02*
X55898Y-34920D01*
X55852Y-34951D01*
X55752Y-35052D01*
X55706Y-35119D01*
X55703Y-35132D01*
X55690Y-35200D01*
X55690Y-35600D01*
X55690Y-35913D01*
X55365Y-36237D01*
X55252Y-36124D01*
X55089Y-36056D01*
X54912Y-36056D01*
X54749Y-36123D01*
X54670Y-36202D01*
X54670Y-35798D01*
X54748Y-35876D01*
X54911Y-35944D01*
X55088Y-35944D01*
X55251Y-35877D01*
X55376Y-35752D01*
X55444Y-35589D01*
X55444Y-35412D01*
X55377Y-35249D01*
X55312Y-35184D01*
X55786Y-34710D01*
X55878Y-34710D01*
X55878Y-34796D01*
X55878Y-34809D01*
X55879Y-34809D01*
X55917Y-34900D01*
X55921Y-34904D01*
X55921Y-34905D01*
G54D10*
G36*
X58021Y-31500D02*
X57950Y-31571D01*
X57879Y-31500D01*
X57950Y-31429D01*
X58021Y-31500D01*
X58021Y-31500D01*
G37*
G54D28*
X58021Y-31500D02*
X57950Y-31571D01*
X57879Y-31500D01*
X57950Y-31429D01*
X58021Y-31500D01*
G54D10*
G36*
X58118Y-37380D02*
X58106Y-37392D01*
X58080Y-37454D01*
X58080Y-37522D01*
X58080Y-37876D01*
X58100Y-37923D01*
X58100Y-38076D01*
X58080Y-38124D01*
X58080Y-38192D01*
X58080Y-38546D01*
X58085Y-38559D01*
X58007Y-38637D01*
X57999Y-38654D01*
X57993Y-38638D01*
X57914Y-38558D01*
X57920Y-38546D01*
X57920Y-38478D01*
X57920Y-38124D01*
X57900Y-38076D01*
X57900Y-37923D01*
X57920Y-37876D01*
X57920Y-37808D01*
X57920Y-37454D01*
X57894Y-37392D01*
X57882Y-37380D01*
X57882Y-37353D01*
X57882Y-37352D01*
X57903Y-37322D01*
X57903Y-37321D01*
X57905Y-37308D01*
X57918Y-37241D01*
X57919Y-37241D01*
X57919Y-37042D01*
X57983Y-37042D01*
X57999Y-37035D01*
X58015Y-37042D01*
X58083Y-37042D01*
X58089Y-37042D01*
X58089Y-37249D01*
X58102Y-37316D01*
X58105Y-37330D01*
X58118Y-37348D01*
X58118Y-37380D01*
X58118Y-37380D01*
G37*
G54D28*
X58118Y-37380D02*
X58106Y-37392D01*
X58080Y-37454D01*
X58080Y-37522D01*
X58080Y-37876D01*
X58100Y-37923D01*
X58100Y-38076D01*
X58080Y-38124D01*
X58080Y-38192D01*
X58080Y-38546D01*
X58085Y-38559D01*
X58007Y-38637D01*
X57999Y-38654D01*
X57993Y-38638D01*
X57914Y-38558D01*
X57920Y-38546D01*
X57920Y-38478D01*
X57920Y-38124D01*
X57900Y-38076D01*
X57900Y-37923D01*
X57920Y-37876D01*
X57920Y-37808D01*
X57920Y-37454D01*
X57894Y-37392D01*
X57882Y-37380D01*
X57882Y-37353D01*
X57882Y-37352D01*
X57903Y-37322D01*
X57903Y-37321D01*
X57905Y-37308D01*
X57918Y-37241D01*
X57919Y-37241D01*
X57919Y-37042D01*
X57983Y-37042D01*
X57999Y-37035D01*
X58015Y-37042D01*
X58083Y-37042D01*
X58089Y-37042D01*
X58089Y-37249D01*
X58102Y-37316D01*
X58105Y-37330D01*
X58118Y-37348D01*
X58118Y-37380D01*
G54D10*
G36*
X58180Y-31128D02*
X58176Y-31131D01*
X58173Y-31109D01*
X58006Y-31054D01*
X57830Y-31067D01*
X57727Y-31109D01*
X57723Y-31131D01*
X57698Y-31106D01*
X57629Y-31174D01*
X57524Y-31130D01*
X57377Y-31130D01*
X57241Y-31186D01*
X57200Y-31227D01*
X57160Y-31187D01*
X57024Y-31130D01*
X56877Y-31130D01*
X56741Y-31186D01*
X56700Y-31227D01*
X56660Y-31187D01*
X56524Y-31130D01*
X56377Y-31130D01*
X56241Y-31186D01*
X56200Y-31227D01*
X56160Y-31187D01*
X56024Y-31130D01*
X55877Y-31130D01*
X55741Y-31186D01*
X55637Y-31290D01*
X55580Y-31426D01*
X55580Y-31573D01*
X55636Y-31709D01*
X55740Y-31813D01*
X55876Y-31870D01*
X56023Y-31870D01*
X56159Y-31814D01*
X56200Y-31773D01*
X56240Y-31813D01*
X56240Y-31950D01*
X56253Y-32017D01*
X56256Y-32031D01*
X56291Y-32082D01*
X56275Y-32076D01*
X56176Y-32076D01*
X56112Y-32075D01*
X56050Y-32137D01*
X56050Y-32400D01*
X56413Y-32400D01*
X56475Y-32338D01*
X56474Y-32276D01*
X56470Y-32266D01*
X56613Y-32409D01*
X56613Y-32457D01*
X56657Y-32562D01*
X56694Y-32599D01*
X56657Y-32637D01*
X56613Y-32743D01*
X56613Y-32857D01*
X56657Y-32962D01*
X56700Y-33005D01*
X56700Y-33070D01*
X56690Y-33094D01*
X56690Y-33162D01*
X56690Y-33378D01*
X56395Y-33083D01*
X56395Y-32891D01*
X56369Y-32829D01*
X56337Y-32797D01*
X56366Y-32786D01*
X56436Y-32716D01*
X56474Y-32624D01*
X56475Y-32562D01*
X56413Y-32500D01*
X56100Y-32500D01*
X56050Y-32500D01*
X55950Y-32500D01*
X55950Y-32400D01*
X55950Y-32137D01*
X55888Y-32075D01*
X55824Y-32076D01*
X55725Y-32076D01*
X55634Y-32114D01*
X55564Y-32184D01*
X55526Y-32276D01*
X55525Y-32338D01*
X55587Y-32400D01*
X55950Y-32400D01*
X55950Y-32500D01*
X55900Y-32500D01*
X55587Y-32500D01*
X55525Y-32562D01*
X55526Y-32624D01*
X55564Y-32716D01*
X55597Y-32749D01*
X55500Y-32730D01*
X55385Y-32730D01*
X55444Y-32589D01*
X55444Y-32412D01*
X55377Y-32249D01*
X55252Y-32124D01*
X55089Y-32056D01*
X54912Y-32056D01*
X54749Y-32123D01*
X54670Y-32202D01*
X54670Y-32000D01*
X54670Y-31936D01*
X54691Y-31945D01*
X54759Y-31945D01*
X55309Y-31945D01*
X55371Y-31919D01*
X55419Y-31871D01*
X55445Y-31809D01*
X55445Y-31741D01*
X55445Y-31191D01*
X55419Y-31129D01*
X55371Y-31081D01*
X55309Y-31055D01*
X55241Y-31055D01*
X54691Y-31055D01*
X54670Y-31063D01*
X54670Y-30770D01*
X58180Y-30770D01*
X58180Y-31128D01*
X58180Y-31128D01*
G37*
G54D28*
X58180Y-31128D02*
X58176Y-31131D01*
X58173Y-31109D01*
X58006Y-31054D01*
X57830Y-31067D01*
X57727Y-31109D01*
X57723Y-31131D01*
X57698Y-31106D01*
X57629Y-31174D01*
X57524Y-31130D01*
X57377Y-31130D01*
X57241Y-31186D01*
X57200Y-31227D01*
X57160Y-31187D01*
X57024Y-31130D01*
X56877Y-31130D01*
X56741Y-31186D01*
X56700Y-31227D01*
X56660Y-31187D01*
X56524Y-31130D01*
X56377Y-31130D01*
X56241Y-31186D01*
X56200Y-31227D01*
X56160Y-31187D01*
X56024Y-31130D01*
X55877Y-31130D01*
X55741Y-31186D01*
X55637Y-31290D01*
X55580Y-31426D01*
X55580Y-31573D01*
X55636Y-31709D01*
X55740Y-31813D01*
X55876Y-31870D01*
X56023Y-31870D01*
X56159Y-31814D01*
X56200Y-31773D01*
X56240Y-31813D01*
X56240Y-31950D01*
X56253Y-32017D01*
X56256Y-32031D01*
X56291Y-32082D01*
X56275Y-32076D01*
X56176Y-32076D01*
X56112Y-32075D01*
X56050Y-32137D01*
X56050Y-32400D01*
X56413Y-32400D01*
X56475Y-32338D01*
X56474Y-32276D01*
X56470Y-32266D01*
X56613Y-32409D01*
X56613Y-32457D01*
X56657Y-32562D01*
X56694Y-32599D01*
X56657Y-32637D01*
X56613Y-32743D01*
X56613Y-32857D01*
X56657Y-32962D01*
X56700Y-33005D01*
X56700Y-33070D01*
X56690Y-33094D01*
X56690Y-33162D01*
X56690Y-33378D01*
X56395Y-33083D01*
X56395Y-32891D01*
X56369Y-32829D01*
X56337Y-32797D01*
X56366Y-32786D01*
X56436Y-32716D01*
X56474Y-32624D01*
X56475Y-32562D01*
X56413Y-32500D01*
X56100Y-32500D01*
X56050Y-32500D01*
X55950Y-32500D01*
X55950Y-32400D01*
X55950Y-32137D01*
X55888Y-32075D01*
X55824Y-32076D01*
X55725Y-32076D01*
X55634Y-32114D01*
X55564Y-32184D01*
X55526Y-32276D01*
X55525Y-32338D01*
X55587Y-32400D01*
X55950Y-32400D01*
X55950Y-32500D01*
X55900Y-32500D01*
X55587Y-32500D01*
X55525Y-32562D01*
X55526Y-32624D01*
X55564Y-32716D01*
X55597Y-32749D01*
X55500Y-32730D01*
X55385Y-32730D01*
X55444Y-32589D01*
X55444Y-32412D01*
X55377Y-32249D01*
X55252Y-32124D01*
X55089Y-32056D01*
X54912Y-32056D01*
X54749Y-32123D01*
X54670Y-32202D01*
X54670Y-32000D01*
X54670Y-31936D01*
X54691Y-31945D01*
X54759Y-31945D01*
X55309Y-31945D01*
X55371Y-31919D01*
X55419Y-31871D01*
X55445Y-31809D01*
X55445Y-31741D01*
X55445Y-31191D01*
X55419Y-31129D01*
X55371Y-31081D01*
X55309Y-31055D01*
X55241Y-31055D01*
X54691Y-31055D01*
X54670Y-31063D01*
X54670Y-30770D01*
X58180Y-30770D01*
X58180Y-31128D01*
G54D10*
G36*
X60056Y-33369D02*
X60033Y-33427D01*
X60033Y-33541D01*
X59950Y-33624D01*
X59950Y-33363D01*
X59950Y-33100D01*
X59587Y-33100D01*
X59525Y-33162D01*
X59526Y-33224D01*
X59564Y-33316D01*
X59634Y-33386D01*
X59725Y-33424D01*
X59824Y-33424D01*
X59888Y-33425D01*
X59950Y-33363D01*
X59950Y-33624D01*
X59893Y-33681D01*
X59672Y-33681D01*
X59623Y-33691D01*
X59438Y-33691D01*
X59376Y-33717D01*
X59328Y-33765D01*
X59308Y-33812D01*
X59248Y-33752D01*
X59244Y-33749D01*
X59271Y-33739D01*
X59341Y-33669D01*
X59379Y-33577D01*
X59380Y-33440D01*
X59380Y-33216D01*
X59379Y-33079D01*
X59341Y-32987D01*
X59271Y-32917D01*
X59180Y-32879D01*
X59166Y-32879D01*
X59105Y-32940D01*
X59105Y-33278D01*
X59318Y-33278D01*
X59380Y-33216D01*
X59380Y-33440D01*
X59318Y-33378D01*
X59180Y-33378D01*
X59105Y-33378D01*
X59100Y-33378D01*
X59100Y-33094D01*
X59074Y-33032D01*
X59055Y-33013D01*
X59055Y-32940D01*
X58994Y-32879D01*
X58980Y-32879D01*
X58889Y-32917D01*
X58848Y-32958D01*
X58796Y-32958D01*
X58785Y-32962D01*
X58774Y-32958D01*
X58706Y-32958D01*
X58606Y-32958D01*
X58590Y-32964D01*
X58574Y-32958D01*
X58506Y-32958D01*
X58406Y-32958D01*
X58390Y-32964D01*
X58374Y-32958D01*
X58306Y-32958D01*
X58206Y-32958D01*
X58195Y-32962D01*
X58184Y-32958D01*
X58116Y-32958D01*
X58016Y-32958D01*
X58000Y-32964D01*
X57984Y-32958D01*
X57916Y-32958D01*
X57816Y-32958D01*
X57800Y-32964D01*
X57784Y-32958D01*
X57716Y-32958D01*
X57616Y-32958D01*
X57605Y-32962D01*
X57594Y-32958D01*
X57545Y-32958D01*
X57587Y-32857D01*
X57587Y-32809D01*
X57598Y-32799D01*
X57598Y-32798D01*
X57644Y-32731D01*
X57644Y-32730D01*
X57646Y-32717D01*
X57659Y-32650D01*
X57660Y-32650D01*
X57660Y-31856D01*
X57698Y-31894D01*
X57723Y-31868D01*
X57727Y-31891D01*
X57894Y-31946D01*
X58070Y-31933D01*
X58173Y-31891D01*
X58176Y-31868D01*
X58185Y-31877D01*
X58201Y-31953D01*
X58259Y-32041D01*
X58859Y-32641D01*
X58946Y-32699D01*
X58947Y-32699D01*
X59050Y-32720D01*
X59628Y-32720D01*
X59564Y-32784D01*
X59526Y-32876D01*
X59525Y-32938D01*
X59587Y-33000D01*
X59900Y-33000D01*
X59950Y-33000D01*
X60050Y-33000D01*
X60050Y-33100D01*
X60050Y-33150D01*
X60050Y-33363D01*
X60056Y-33369D01*
X60056Y-33369D01*
G37*
G54D28*
X60056Y-33369D02*
X60033Y-33427D01*
X60033Y-33541D01*
X59950Y-33624D01*
X59950Y-33363D01*
X59950Y-33100D01*
X59587Y-33100D01*
X59525Y-33162D01*
X59526Y-33224D01*
X59564Y-33316D01*
X59634Y-33386D01*
X59725Y-33424D01*
X59824Y-33424D01*
X59888Y-33425D01*
X59950Y-33363D01*
X59950Y-33624D01*
X59893Y-33681D01*
X59672Y-33681D01*
X59623Y-33691D01*
X59438Y-33691D01*
X59376Y-33717D01*
X59328Y-33765D01*
X59308Y-33812D01*
X59248Y-33752D01*
X59244Y-33749D01*
X59271Y-33739D01*
X59341Y-33669D01*
X59379Y-33577D01*
X59380Y-33440D01*
X59380Y-33216D01*
X59379Y-33079D01*
X59341Y-32987D01*
X59271Y-32917D01*
X59180Y-32879D01*
X59166Y-32879D01*
X59105Y-32940D01*
X59105Y-33278D01*
X59318Y-33278D01*
X59380Y-33216D01*
X59380Y-33440D01*
X59318Y-33378D01*
X59180Y-33378D01*
X59105Y-33378D01*
X59100Y-33378D01*
X59100Y-33094D01*
X59074Y-33032D01*
X59055Y-33013D01*
X59055Y-32940D01*
X58994Y-32879D01*
X58980Y-32879D01*
X58889Y-32917D01*
X58848Y-32958D01*
X58796Y-32958D01*
X58785Y-32962D01*
X58774Y-32958D01*
X58706Y-32958D01*
X58606Y-32958D01*
X58590Y-32964D01*
X58574Y-32958D01*
X58506Y-32958D01*
X58406Y-32958D01*
X58390Y-32964D01*
X58374Y-32958D01*
X58306Y-32958D01*
X58206Y-32958D01*
X58195Y-32962D01*
X58184Y-32958D01*
X58116Y-32958D01*
X58016Y-32958D01*
X58000Y-32964D01*
X57984Y-32958D01*
X57916Y-32958D01*
X57816Y-32958D01*
X57800Y-32964D01*
X57784Y-32958D01*
X57716Y-32958D01*
X57616Y-32958D01*
X57605Y-32962D01*
X57594Y-32958D01*
X57545Y-32958D01*
X57587Y-32857D01*
X57587Y-32809D01*
X57598Y-32799D01*
X57598Y-32798D01*
X57644Y-32731D01*
X57644Y-32730D01*
X57646Y-32717D01*
X57659Y-32650D01*
X57660Y-32650D01*
X57660Y-31856D01*
X57698Y-31894D01*
X57723Y-31868D01*
X57727Y-31891D01*
X57894Y-31946D01*
X58070Y-31933D01*
X58173Y-31891D01*
X58176Y-31868D01*
X58185Y-31877D01*
X58201Y-31953D01*
X58259Y-32041D01*
X58859Y-32641D01*
X58946Y-32699D01*
X58947Y-32699D01*
X59050Y-32720D01*
X59628Y-32720D01*
X59564Y-32784D01*
X59526Y-32876D01*
X59525Y-32938D01*
X59587Y-33000D01*
X59900Y-33000D01*
X59950Y-33000D01*
X60050Y-33000D01*
X60050Y-33100D01*
X60050Y-33150D01*
X60050Y-33363D01*
X60056Y-33369D01*
G54D10*
G36*
X60140Y-43463D02*
X59785Y-43818D01*
X59720Y-43818D01*
X59708Y-43806D01*
X59646Y-43780D01*
X59578Y-43780D01*
X59500Y-43780D01*
X59224Y-43780D01*
X59176Y-43800D01*
X59023Y-43800D01*
X58976Y-43780D01*
X58975Y-43780D01*
X58975Y-43765D01*
X58959Y-43685D01*
X58958Y-43684D01*
X58943Y-43662D01*
X58913Y-43617D01*
X58913Y-43616D01*
X58893Y-43597D01*
X59386Y-43597D01*
X59448Y-43571D01*
X59457Y-43562D01*
X59500Y-43562D01*
X59648Y-43562D01*
X59648Y-43561D01*
X59715Y-43548D01*
X59728Y-43546D01*
X59729Y-43546D01*
X59796Y-43500D01*
X60140Y-43156D01*
X60140Y-43463D01*
X60140Y-43463D01*
G37*
G54D28*
X60140Y-43463D02*
X59785Y-43818D01*
X59720Y-43818D01*
X59708Y-43806D01*
X59646Y-43780D01*
X59578Y-43780D01*
X59500Y-43780D01*
X59224Y-43780D01*
X59176Y-43800D01*
X59023Y-43800D01*
X58976Y-43780D01*
X58975Y-43780D01*
X58975Y-43765D01*
X58959Y-43685D01*
X58958Y-43684D01*
X58943Y-43662D01*
X58913Y-43617D01*
X58913Y-43616D01*
X58893Y-43597D01*
X59386Y-43597D01*
X59448Y-43571D01*
X59457Y-43562D01*
X59500Y-43562D01*
X59648Y-43562D01*
X59648Y-43561D01*
X59715Y-43548D01*
X59728Y-43546D01*
X59729Y-43546D01*
X59796Y-43500D01*
X60140Y-43156D01*
X60140Y-43463D01*
G54D10*
G36*
X61330Y-36202D02*
X61252Y-36124D01*
X61089Y-36056D01*
X60912Y-36056D01*
X60905Y-36058D01*
X60189Y-35343D01*
X60122Y-35297D01*
X60108Y-35294D01*
X60041Y-35281D01*
X59982Y-35281D01*
X59997Y-35266D01*
X60060Y-35266D01*
X60122Y-35204D01*
X60121Y-35192D01*
X60087Y-35111D01*
X60314Y-35111D01*
X60573Y-35369D01*
X60556Y-35411D01*
X60556Y-35588D01*
X60623Y-35751D01*
X60748Y-35876D01*
X60911Y-35944D01*
X61088Y-35944D01*
X61251Y-35877D01*
X61330Y-35798D01*
X61330Y-36202D01*
X61330Y-36202D01*
G37*
G54D28*
X61330Y-36202D02*
X61252Y-36124D01*
X61089Y-36056D01*
X60912Y-36056D01*
X60905Y-36058D01*
X60189Y-35343D01*
X60122Y-35297D01*
X60108Y-35294D01*
X60041Y-35281D01*
X59982Y-35281D01*
X59997Y-35266D01*
X60060Y-35266D01*
X60122Y-35204D01*
X60121Y-35192D01*
X60087Y-35111D01*
X60314Y-35111D01*
X60573Y-35369D01*
X60556Y-35411D01*
X60556Y-35588D01*
X60623Y-35751D01*
X60748Y-35876D01*
X60911Y-35944D01*
X61088Y-35944D01*
X61251Y-35877D01*
X61330Y-35798D01*
X61330Y-36202D01*
G54D10*
G36*
X61330Y-40202D02*
X61252Y-40124D01*
X61089Y-40056D01*
X60912Y-40056D01*
X60749Y-40123D01*
X60624Y-40248D01*
X60556Y-40411D01*
X60556Y-40588D01*
X60573Y-40630D01*
X60352Y-40852D01*
X60306Y-40919D01*
X60303Y-40932D01*
X60290Y-41000D01*
X60290Y-41813D01*
X60160Y-41943D01*
X60160Y-40600D01*
X60144Y-40520D01*
X60143Y-40519D01*
X60137Y-40509D01*
X60137Y-40443D01*
X60093Y-40338D01*
X60013Y-40257D01*
X59950Y-40230D01*
X59950Y-37813D01*
X59950Y-37550D01*
X59587Y-37550D01*
X59525Y-37612D01*
X59526Y-37674D01*
X59564Y-37766D01*
X59634Y-37836D01*
X59725Y-37874D01*
X59824Y-37874D01*
X59888Y-37875D01*
X59950Y-37813D01*
X59950Y-40230D01*
X59907Y-40213D01*
X59793Y-40213D01*
X59688Y-40257D01*
X59650Y-40294D01*
X59613Y-40257D01*
X59567Y-40238D01*
X59599Y-40162D01*
X59599Y-40063D01*
X59600Y-40047D01*
X59538Y-39985D01*
X59500Y-39985D01*
X59372Y-39985D01*
X59311Y-39985D01*
X59233Y-39985D01*
X59223Y-39985D01*
X59172Y-39985D01*
X59057Y-39985D01*
X59006Y-39985D01*
X58996Y-39985D01*
X58918Y-39985D01*
X58909Y-39985D01*
X58857Y-39985D01*
X58743Y-39985D01*
X58691Y-39985D01*
X58682Y-39985D01*
X58604Y-39985D01*
X58594Y-39985D01*
X58543Y-39985D01*
X58377Y-39985D01*
X58367Y-39985D01*
X58367Y-39995D01*
X58315Y-40047D01*
X58316Y-40063D01*
X58316Y-40162D01*
X58354Y-40253D01*
X58367Y-40266D01*
X58367Y-40300D01*
X58429Y-40362D01*
X58455Y-40361D01*
X58485Y-40348D01*
X58516Y-40361D01*
X58542Y-40362D01*
X58543Y-40361D01*
X58543Y-40362D01*
X58596Y-40362D01*
X58563Y-40443D01*
X58563Y-40557D01*
X58607Y-40662D01*
X58687Y-40743D01*
X58721Y-40757D01*
X58711Y-40762D01*
X58641Y-40832D01*
X58603Y-40924D01*
X58602Y-40949D01*
X58664Y-41011D01*
X59052Y-41011D01*
X59052Y-40998D01*
X59152Y-40998D01*
X59152Y-41011D01*
X59152Y-41059D01*
X58818Y-41059D01*
X58756Y-41085D01*
X58664Y-41085D01*
X58655Y-41094D01*
X58646Y-41094D01*
X58578Y-41107D01*
X58565Y-41110D01*
X58497Y-41156D01*
X58289Y-41363D01*
X58289Y-40300D01*
X58289Y-39985D01*
X58062Y-39985D01*
X58000Y-40047D01*
X57938Y-39985D01*
X57900Y-39985D01*
X57711Y-39985D01*
X57711Y-40300D01*
X57773Y-40362D01*
X57799Y-40361D01*
X57891Y-40323D01*
X57900Y-40314D01*
X57961Y-40253D01*
X57999Y-40162D01*
X57999Y-40063D01*
X58000Y-40047D01*
X58001Y-40063D01*
X58001Y-40162D01*
X58039Y-40253D01*
X58109Y-40323D01*
X58201Y-40361D01*
X58227Y-40362D01*
X58289Y-40300D01*
X58289Y-41363D01*
X58012Y-41640D01*
X57900Y-41528D01*
X57638Y-41267D01*
X57693Y-41213D01*
X57737Y-41107D01*
X57737Y-40993D01*
X57693Y-40888D01*
X57613Y-40807D01*
X57507Y-40763D01*
X57393Y-40763D01*
X57288Y-40807D01*
X57256Y-40838D01*
X57253Y-40838D01*
X57244Y-40829D01*
X57182Y-40803D01*
X57114Y-40803D01*
X56943Y-40803D01*
X56959Y-40787D01*
X57007Y-40787D01*
X57112Y-40743D01*
X57193Y-40663D01*
X57237Y-40557D01*
X57237Y-40443D01*
X57197Y-40349D01*
X57200Y-40348D01*
X57230Y-40361D01*
X57256Y-40362D01*
X57318Y-40300D01*
X57318Y-40267D01*
X57332Y-40253D01*
X57357Y-40191D01*
X57383Y-40253D01*
X57396Y-40266D01*
X57396Y-40300D01*
X57458Y-40362D01*
X57484Y-40361D01*
X57514Y-40348D01*
X57545Y-40361D01*
X57571Y-40362D01*
X57633Y-40300D01*
X57633Y-40266D01*
X57646Y-40253D01*
X57684Y-40162D01*
X57684Y-40063D01*
X57685Y-40047D01*
X57633Y-39995D01*
X57633Y-39985D01*
X57623Y-39985D01*
X57406Y-39985D01*
X57396Y-39985D01*
X57396Y-39995D01*
X57357Y-40033D01*
X57318Y-39994D01*
X57318Y-39985D01*
X57309Y-39985D01*
X57143Y-39985D01*
X57091Y-39985D01*
X57082Y-39985D01*
X57004Y-39985D01*
X56994Y-39985D01*
X56943Y-39985D01*
X56828Y-39985D01*
X56777Y-39985D01*
X56767Y-39985D01*
X56689Y-39985D01*
X56628Y-39985D01*
X56462Y-39985D01*
X56400Y-40047D01*
X56401Y-40063D01*
X56401Y-40162D01*
X56432Y-40238D01*
X56388Y-40257D01*
X56350Y-40294D01*
X56313Y-40257D01*
X56207Y-40213D01*
X56093Y-40213D01*
X55988Y-40257D01*
X55950Y-40294D01*
X55950Y-37813D01*
X55950Y-37550D01*
X55587Y-37550D01*
X55525Y-37612D01*
X55526Y-37674D01*
X55564Y-37766D01*
X55634Y-37836D01*
X55725Y-37874D01*
X55824Y-37874D01*
X55888Y-37875D01*
X55950Y-37813D01*
X55950Y-40294D01*
X55907Y-40337D01*
X55863Y-40443D01*
X55863Y-40508D01*
X55856Y-40519D01*
X55853Y-40532D01*
X55840Y-40600D01*
X55840Y-41800D01*
X55853Y-41867D01*
X55856Y-41881D01*
X55902Y-41948D01*
X56090Y-42136D01*
X56090Y-42376D01*
X56076Y-42376D01*
X56012Y-42375D01*
X55950Y-42437D01*
X55950Y-42650D01*
X55950Y-42700D01*
X55950Y-42800D01*
X55850Y-42800D01*
X55850Y-42700D01*
X55850Y-42437D01*
X55788Y-42375D01*
X55724Y-42376D01*
X55625Y-42376D01*
X55534Y-42414D01*
X55464Y-42484D01*
X55444Y-42532D01*
X55444Y-42412D01*
X55444Y-41589D01*
X55444Y-41412D01*
X55444Y-40589D01*
X55444Y-40412D01*
X55444Y-39589D01*
X55444Y-39412D01*
X55444Y-38589D01*
X55444Y-38412D01*
X55377Y-38249D01*
X55252Y-38124D01*
X55089Y-38056D01*
X54912Y-38056D01*
X54749Y-38123D01*
X54624Y-38248D01*
X54556Y-38411D01*
X54556Y-38588D01*
X54623Y-38751D01*
X54748Y-38876D01*
X54911Y-38944D01*
X55088Y-38944D01*
X55251Y-38877D01*
X55376Y-38752D01*
X55444Y-38589D01*
X55444Y-39412D01*
X55377Y-39249D01*
X55252Y-39124D01*
X55089Y-39056D01*
X54912Y-39056D01*
X54749Y-39123D01*
X54624Y-39248D01*
X54556Y-39411D01*
X54556Y-39588D01*
X54623Y-39751D01*
X54748Y-39876D01*
X54911Y-39944D01*
X55088Y-39944D01*
X55251Y-39877D01*
X55376Y-39752D01*
X55444Y-39589D01*
X55444Y-40412D01*
X55377Y-40249D01*
X55252Y-40124D01*
X55089Y-40056D01*
X54912Y-40056D01*
X54749Y-40123D01*
X54624Y-40248D01*
X54556Y-40411D01*
X54556Y-40588D01*
X54623Y-40751D01*
X54748Y-40876D01*
X54911Y-40944D01*
X55088Y-40944D01*
X55251Y-40877D01*
X55376Y-40752D01*
X55444Y-40589D01*
X55444Y-41412D01*
X55377Y-41249D01*
X55252Y-41124D01*
X55089Y-41056D01*
X54912Y-41056D01*
X54749Y-41123D01*
X54624Y-41248D01*
X54556Y-41411D01*
X54556Y-41588D01*
X54623Y-41751D01*
X54748Y-41876D01*
X54911Y-41944D01*
X55088Y-41944D01*
X55251Y-41877D01*
X55376Y-41752D01*
X55444Y-41589D01*
X55444Y-42412D01*
X55377Y-42249D01*
X55252Y-42124D01*
X55089Y-42056D01*
X54912Y-42056D01*
X54749Y-42123D01*
X54624Y-42248D01*
X54556Y-42411D01*
X54556Y-42588D01*
X54623Y-42751D01*
X54748Y-42876D01*
X54911Y-42944D01*
X55088Y-42944D01*
X55251Y-42877D01*
X55376Y-42752D01*
X55425Y-42634D01*
X55425Y-42638D01*
X55487Y-42700D01*
X55850Y-42700D01*
X55850Y-42800D01*
X55800Y-42800D01*
X55487Y-42800D01*
X55425Y-42862D01*
X55426Y-42924D01*
X55464Y-43016D01*
X55534Y-43086D01*
X55562Y-43097D01*
X55531Y-43129D01*
X55505Y-43191D01*
X55505Y-43259D01*
X55505Y-43509D01*
X55531Y-43571D01*
X55579Y-43619D01*
X55630Y-43640D01*
X55630Y-43650D01*
X55630Y-45200D01*
X55651Y-45303D01*
X55709Y-45391D01*
X55868Y-45550D01*
X55519Y-45550D01*
X55519Y-44574D01*
X55508Y-44370D01*
X55452Y-44233D01*
X55444Y-44230D01*
X55444Y-43589D01*
X55444Y-43412D01*
X55377Y-43249D01*
X55252Y-43124D01*
X55089Y-43056D01*
X54912Y-43056D01*
X54749Y-43123D01*
X54624Y-43248D01*
X54556Y-43411D01*
X54556Y-43588D01*
X54623Y-43751D01*
X54748Y-43876D01*
X54911Y-43944D01*
X55088Y-43944D01*
X55251Y-43877D01*
X55376Y-43752D01*
X55444Y-43589D01*
X55444Y-44230D01*
X55361Y-44210D01*
X55290Y-44281D01*
X55290Y-44139D01*
X55267Y-44048D01*
X55074Y-43981D01*
X54870Y-43992D01*
X54733Y-44048D01*
X54710Y-44139D01*
X55000Y-44429D01*
X55290Y-44139D01*
X55290Y-44281D01*
X55071Y-44500D01*
X55361Y-44790D01*
X55452Y-44767D01*
X55519Y-44574D01*
X55519Y-45550D01*
X55290Y-45550D01*
X55290Y-44861D01*
X55000Y-44571D01*
X54929Y-44642D01*
X54929Y-44500D01*
X54639Y-44210D01*
X54548Y-44233D01*
X54481Y-44426D01*
X54492Y-44630D01*
X54548Y-44767D01*
X54639Y-44790D01*
X54929Y-44500D01*
X54929Y-44642D01*
X54710Y-44861D01*
X54733Y-44952D01*
X54926Y-45019D01*
X55130Y-45008D01*
X55267Y-44952D01*
X55290Y-44861D01*
X55290Y-45550D01*
X54350Y-45550D01*
X54350Y-37032D01*
X54509Y-37191D01*
X54597Y-37249D01*
X54621Y-37253D01*
X54556Y-37411D01*
X54556Y-37588D01*
X54623Y-37751D01*
X54748Y-37876D01*
X54911Y-37944D01*
X55088Y-37944D01*
X55251Y-37877D01*
X55376Y-37752D01*
X55444Y-37589D01*
X55444Y-37412D01*
X55385Y-37270D01*
X55500Y-37270D01*
X55553Y-37259D01*
X55526Y-37326D01*
X55525Y-37388D01*
X55587Y-37450D01*
X55900Y-37450D01*
X55950Y-37450D01*
X56050Y-37450D01*
X56100Y-37450D01*
X56413Y-37450D01*
X56475Y-37388D01*
X56474Y-37326D01*
X56436Y-37234D01*
X56366Y-37164D01*
X56337Y-37152D01*
X56369Y-37121D01*
X56395Y-37059D01*
X56395Y-36991D01*
X56395Y-36741D01*
X56369Y-36679D01*
X56321Y-36631D01*
X56302Y-36623D01*
X56488Y-36436D01*
X56490Y-36435D01*
X56491Y-36435D01*
X56540Y-36360D01*
X56550Y-36309D01*
X56562Y-36309D01*
X56624Y-36283D01*
X56672Y-36235D01*
X56698Y-36173D01*
X56698Y-36105D01*
X56698Y-36099D01*
X57911Y-36099D01*
X58151Y-36099D01*
X58243Y-36137D01*
X58357Y-36137D01*
X58462Y-36093D01*
X58543Y-36013D01*
X58587Y-35907D01*
X58587Y-35793D01*
X58543Y-35688D01*
X58463Y-35607D01*
X58357Y-35563D01*
X58243Y-35563D01*
X58138Y-35607D01*
X58065Y-35679D01*
X58056Y-35679D01*
X58056Y-34555D01*
X58056Y-33835D01*
X57104Y-33835D01*
X57104Y-34555D01*
X58056Y-34555D01*
X58056Y-35679D01*
X57977Y-35679D01*
X57987Y-35657D01*
X57987Y-35543D01*
X57943Y-35438D01*
X57863Y-35357D01*
X57757Y-35313D01*
X57674Y-35313D01*
X57643Y-35238D01*
X57563Y-35157D01*
X57457Y-35113D01*
X57343Y-35113D01*
X57238Y-35157D01*
X57157Y-35237D01*
X57139Y-35279D01*
X57087Y-35279D01*
X57087Y-35193D01*
X57043Y-35088D01*
X56963Y-35007D01*
X56922Y-34989D01*
X56956Y-34956D01*
X57003Y-34884D01*
X57020Y-34800D01*
X57021Y-34800D01*
X57020Y-34795D01*
X57020Y-33800D01*
X57003Y-33716D01*
X57002Y-33715D01*
X56991Y-33698D01*
X56994Y-33698D01*
X57010Y-33691D01*
X57026Y-33698D01*
X57094Y-33698D01*
X57194Y-33698D01*
X57210Y-33691D01*
X57226Y-33698D01*
X57294Y-33698D01*
X57394Y-33698D01*
X57410Y-33691D01*
X57426Y-33698D01*
X57494Y-33698D01*
X57594Y-33698D01*
X57605Y-33693D01*
X57616Y-33698D01*
X57684Y-33698D01*
X57784Y-33698D01*
X57800Y-33691D01*
X57816Y-33698D01*
X57884Y-33698D01*
X57984Y-33698D01*
X58000Y-33691D01*
X58016Y-33698D01*
X58084Y-33698D01*
X58184Y-33698D01*
X58195Y-33693D01*
X58206Y-33698D01*
X58274Y-33698D01*
X58374Y-33698D01*
X58390Y-33691D01*
X58406Y-33698D01*
X58474Y-33698D01*
X58574Y-33698D01*
X58590Y-33691D01*
X58599Y-33695D01*
X58557Y-33737D01*
X58513Y-33843D01*
X58513Y-33957D01*
X58557Y-34062D01*
X58637Y-34143D01*
X58737Y-34184D01*
X58713Y-34243D01*
X58713Y-34357D01*
X58757Y-34462D01*
X58837Y-34543D01*
X58943Y-34587D01*
X59057Y-34587D01*
X59162Y-34543D01*
X59184Y-34521D01*
X59302Y-34521D01*
X59302Y-34595D01*
X59306Y-34606D01*
X59302Y-34617D01*
X59302Y-34685D01*
X59302Y-34785D01*
X59308Y-34801D01*
X59302Y-34817D01*
X59302Y-34881D01*
X59299Y-34881D01*
X59215Y-34898D01*
X59143Y-34945D01*
X59141Y-34947D01*
X58744Y-35344D01*
X58697Y-35416D01*
X58679Y-35500D01*
X58680Y-35504D01*
X58680Y-35895D01*
X58679Y-35900D01*
X58697Y-35984D01*
X58744Y-36056D01*
X58994Y-36306D01*
X58989Y-36308D01*
X58973Y-36302D01*
X58905Y-36302D01*
X58805Y-36302D01*
X58789Y-36308D01*
X58773Y-36302D01*
X58705Y-36302D01*
X58605Y-36302D01*
X58589Y-36308D01*
X58573Y-36302D01*
X58505Y-36302D01*
X58405Y-36302D01*
X58394Y-36306D01*
X58383Y-36302D01*
X58315Y-36302D01*
X58215Y-36302D01*
X58199Y-36308D01*
X58183Y-36302D01*
X58115Y-36302D01*
X58015Y-36302D01*
X57999Y-36308D01*
X57983Y-36302D01*
X57915Y-36302D01*
X57815Y-36302D01*
X57804Y-36306D01*
X57793Y-36302D01*
X57725Y-36302D01*
X57625Y-36302D01*
X57609Y-36308D01*
X57593Y-36302D01*
X57525Y-36302D01*
X57425Y-36302D01*
X57409Y-36308D01*
X57393Y-36302D01*
X57325Y-36302D01*
X57225Y-36302D01*
X57214Y-36306D01*
X57203Y-36302D01*
X57151Y-36302D01*
X57110Y-36261D01*
X57019Y-36223D01*
X57005Y-36223D01*
X56944Y-36284D01*
X56944Y-36357D01*
X56925Y-36376D01*
X56899Y-36438D01*
X56899Y-36506D01*
X56899Y-36722D01*
X56894Y-36722D01*
X56894Y-36622D01*
X56894Y-36284D01*
X56833Y-36223D01*
X56819Y-36223D01*
X56728Y-36261D01*
X56658Y-36331D01*
X56620Y-36423D01*
X56619Y-36560D01*
X56681Y-36622D01*
X56894Y-36622D01*
X56894Y-36722D01*
X56819Y-36722D01*
X56681Y-36722D01*
X56619Y-36784D01*
X56620Y-36921D01*
X56658Y-37013D01*
X56724Y-37079D01*
X56580Y-37224D01*
X56534Y-37291D01*
X56531Y-37304D01*
X56518Y-37372D01*
X56518Y-37380D01*
X56506Y-37392D01*
X56480Y-37454D01*
X56480Y-37522D01*
X56480Y-37876D01*
X56500Y-37923D01*
X56500Y-38076D01*
X56480Y-38124D01*
X56480Y-38192D01*
X56480Y-38546D01*
X56500Y-38594D01*
X56475Y-38619D01*
X56475Y-37612D01*
X56413Y-37550D01*
X56050Y-37550D01*
X56050Y-37813D01*
X56112Y-37875D01*
X56176Y-37874D01*
X56275Y-37874D01*
X56366Y-37836D01*
X56436Y-37766D01*
X56474Y-37674D01*
X56475Y-37612D01*
X56475Y-38619D01*
X56457Y-38637D01*
X56413Y-38743D01*
X56413Y-38857D01*
X56457Y-38962D01*
X56500Y-39005D01*
X56480Y-39054D01*
X56480Y-39122D01*
X56480Y-39476D01*
X56506Y-39538D01*
X56513Y-39545D01*
X56509Y-39547D01*
X56439Y-39617D01*
X56401Y-39708D01*
X56401Y-39807D01*
X56400Y-39823D01*
X56462Y-39885D01*
X56628Y-39885D01*
X56689Y-39885D01*
X56767Y-39885D01*
X56777Y-39885D01*
X56828Y-39885D01*
X56943Y-39885D01*
X56994Y-39885D01*
X57004Y-39885D01*
X57082Y-39885D01*
X57091Y-39885D01*
X57143Y-39885D01*
X57257Y-39885D01*
X57309Y-39885D01*
X57318Y-39885D01*
X57396Y-39885D01*
X57406Y-39885D01*
X57457Y-39885D01*
X57572Y-39885D01*
X57623Y-39885D01*
X57633Y-39885D01*
X57711Y-39885D01*
X57772Y-39885D01*
X57900Y-39885D01*
X57938Y-39885D01*
X58000Y-39823D01*
X58062Y-39885D01*
X58228Y-39885D01*
X58289Y-39885D01*
X58367Y-39885D01*
X58377Y-39885D01*
X58428Y-39885D01*
X58543Y-39885D01*
X58594Y-39885D01*
X58604Y-39885D01*
X58682Y-39885D01*
X58691Y-39885D01*
X58743Y-39885D01*
X58857Y-39885D01*
X58909Y-39885D01*
X58918Y-39885D01*
X58996Y-39885D01*
X59006Y-39885D01*
X59057Y-39885D01*
X59172Y-39885D01*
X59223Y-39885D01*
X59233Y-39885D01*
X59311Y-39885D01*
X59372Y-39885D01*
X59500Y-39885D01*
X59538Y-39885D01*
X59600Y-39823D01*
X59599Y-39807D01*
X59599Y-39708D01*
X59561Y-39617D01*
X59500Y-39556D01*
X59491Y-39547D01*
X59486Y-39545D01*
X59494Y-39538D01*
X59500Y-39523D01*
X59520Y-39476D01*
X59520Y-39408D01*
X59520Y-39054D01*
X59500Y-39006D01*
X59499Y-39005D01*
X59500Y-39005D01*
X59543Y-38963D01*
X59587Y-38857D01*
X59587Y-38743D01*
X59543Y-38638D01*
X59500Y-38594D01*
X59499Y-38594D01*
X59500Y-38593D01*
X59520Y-38546D01*
X59520Y-38478D01*
X59520Y-38124D01*
X59500Y-38076D01*
X59500Y-37923D01*
X59520Y-37876D01*
X59520Y-37808D01*
X59520Y-37454D01*
X59512Y-37437D01*
X59557Y-37437D01*
X59568Y-37431D01*
X59587Y-37450D01*
X59900Y-37450D01*
X59950Y-37450D01*
X60050Y-37450D01*
X60050Y-37550D01*
X60050Y-37600D01*
X60050Y-37813D01*
X60112Y-37875D01*
X60176Y-37874D01*
X60190Y-37874D01*
X60190Y-37900D01*
X60203Y-37967D01*
X60206Y-37981D01*
X60252Y-38048D01*
X60573Y-38369D01*
X60556Y-38411D01*
X60556Y-38588D01*
X60623Y-38751D01*
X60748Y-38876D01*
X60911Y-38944D01*
X61088Y-38944D01*
X61251Y-38877D01*
X61330Y-38798D01*
X61330Y-39202D01*
X61252Y-39124D01*
X61089Y-39056D01*
X60912Y-39056D01*
X60749Y-39123D01*
X60624Y-39248D01*
X60556Y-39411D01*
X60556Y-39588D01*
X60623Y-39751D01*
X60748Y-39876D01*
X60911Y-39944D01*
X61088Y-39944D01*
X61251Y-39877D01*
X61330Y-39798D01*
X61330Y-40202D01*
X61330Y-40202D01*
G37*
G54D28*
X61330Y-40202D02*
X61252Y-40124D01*
X61089Y-40056D01*
X60912Y-40056D01*
X60749Y-40123D01*
X60624Y-40248D01*
X60556Y-40411D01*
X60556Y-40588D01*
X60573Y-40630D01*
X60352Y-40852D01*
X60306Y-40919D01*
X60303Y-40932D01*
X60290Y-41000D01*
X60290Y-41813D01*
X60160Y-41943D01*
X60160Y-40600D01*
X60144Y-40520D01*
X60143Y-40519D01*
X60137Y-40509D01*
X60137Y-40443D01*
X60093Y-40338D01*
X60013Y-40257D01*
X59950Y-40230D01*
X59950Y-37813D01*
X59950Y-37550D01*
X59587Y-37550D01*
X59525Y-37612D01*
X59526Y-37674D01*
X59564Y-37766D01*
X59634Y-37836D01*
X59725Y-37874D01*
X59824Y-37874D01*
X59888Y-37875D01*
X59950Y-37813D01*
X59950Y-40230D01*
X59907Y-40213D01*
X59793Y-40213D01*
X59688Y-40257D01*
X59650Y-40294D01*
X59613Y-40257D01*
X59567Y-40238D01*
X59599Y-40162D01*
X59599Y-40063D01*
X59600Y-40047D01*
X59538Y-39985D01*
X59500Y-39985D01*
X59372Y-39985D01*
X59311Y-39985D01*
X59233Y-39985D01*
X59223Y-39985D01*
X59172Y-39985D01*
X59057Y-39985D01*
X59006Y-39985D01*
X58996Y-39985D01*
X58918Y-39985D01*
X58909Y-39985D01*
X58857Y-39985D01*
X58743Y-39985D01*
X58691Y-39985D01*
X58682Y-39985D01*
X58604Y-39985D01*
X58594Y-39985D01*
X58543Y-39985D01*
X58377Y-39985D01*
X58367Y-39985D01*
X58367Y-39995D01*
X58315Y-40047D01*
X58316Y-40063D01*
X58316Y-40162D01*
X58354Y-40253D01*
X58367Y-40266D01*
X58367Y-40300D01*
X58429Y-40362D01*
X58455Y-40361D01*
X58485Y-40348D01*
X58516Y-40361D01*
X58542Y-40362D01*
X58543Y-40361D01*
X58543Y-40362D01*
X58596Y-40362D01*
X58563Y-40443D01*
X58563Y-40557D01*
X58607Y-40662D01*
X58687Y-40743D01*
X58721Y-40757D01*
X58711Y-40762D01*
X58641Y-40832D01*
X58603Y-40924D01*
X58602Y-40949D01*
X58664Y-41011D01*
X59052Y-41011D01*
X59052Y-40998D01*
X59152Y-40998D01*
X59152Y-41011D01*
X59152Y-41059D01*
X58818Y-41059D01*
X58756Y-41085D01*
X58664Y-41085D01*
X58655Y-41094D01*
X58646Y-41094D01*
X58578Y-41107D01*
X58565Y-41110D01*
X58497Y-41156D01*
X58289Y-41363D01*
X58289Y-40300D01*
X58289Y-39985D01*
X58062Y-39985D01*
X58000Y-40047D01*
X57938Y-39985D01*
X57900Y-39985D01*
X57711Y-39985D01*
X57711Y-40300D01*
X57773Y-40362D01*
X57799Y-40361D01*
X57891Y-40323D01*
X57900Y-40314D01*
X57961Y-40253D01*
X57999Y-40162D01*
X57999Y-40063D01*
X58000Y-40047D01*
X58001Y-40063D01*
X58001Y-40162D01*
X58039Y-40253D01*
X58109Y-40323D01*
X58201Y-40361D01*
X58227Y-40362D01*
X58289Y-40300D01*
X58289Y-41363D01*
X58012Y-41640D01*
X57900Y-41528D01*
X57638Y-41267D01*
X57693Y-41213D01*
X57737Y-41107D01*
X57737Y-40993D01*
X57693Y-40888D01*
X57613Y-40807D01*
X57507Y-40763D01*
X57393Y-40763D01*
X57288Y-40807D01*
X57256Y-40838D01*
X57253Y-40838D01*
X57244Y-40829D01*
X57182Y-40803D01*
X57114Y-40803D01*
X56943Y-40803D01*
X56959Y-40787D01*
X57007Y-40787D01*
X57112Y-40743D01*
X57193Y-40663D01*
X57237Y-40557D01*
X57237Y-40443D01*
X57197Y-40349D01*
X57200Y-40348D01*
X57230Y-40361D01*
X57256Y-40362D01*
X57318Y-40300D01*
X57318Y-40267D01*
X57332Y-40253D01*
X57357Y-40191D01*
X57383Y-40253D01*
X57396Y-40266D01*
X57396Y-40300D01*
X57458Y-40362D01*
X57484Y-40361D01*
X57514Y-40348D01*
X57545Y-40361D01*
X57571Y-40362D01*
X57633Y-40300D01*
X57633Y-40266D01*
X57646Y-40253D01*
X57684Y-40162D01*
X57684Y-40063D01*
X57685Y-40047D01*
X57633Y-39995D01*
X57633Y-39985D01*
X57623Y-39985D01*
X57406Y-39985D01*
X57396Y-39985D01*
X57396Y-39995D01*
X57357Y-40033D01*
X57318Y-39994D01*
X57318Y-39985D01*
X57309Y-39985D01*
X57143Y-39985D01*
X57091Y-39985D01*
X57082Y-39985D01*
X57004Y-39985D01*
X56994Y-39985D01*
X56943Y-39985D01*
X56828Y-39985D01*
X56777Y-39985D01*
X56767Y-39985D01*
X56689Y-39985D01*
X56628Y-39985D01*
X56462Y-39985D01*
X56400Y-40047D01*
X56401Y-40063D01*
X56401Y-40162D01*
X56432Y-40238D01*
X56388Y-40257D01*
X56350Y-40294D01*
X56313Y-40257D01*
X56207Y-40213D01*
X56093Y-40213D01*
X55988Y-40257D01*
X55950Y-40294D01*
X55950Y-37813D01*
X55950Y-37550D01*
X55587Y-37550D01*
X55525Y-37612D01*
X55526Y-37674D01*
X55564Y-37766D01*
X55634Y-37836D01*
X55725Y-37874D01*
X55824Y-37874D01*
X55888Y-37875D01*
X55950Y-37813D01*
X55950Y-40294D01*
X55907Y-40337D01*
X55863Y-40443D01*
X55863Y-40508D01*
X55856Y-40519D01*
X55853Y-40532D01*
X55840Y-40600D01*
X55840Y-41800D01*
X55853Y-41867D01*
X55856Y-41881D01*
X55902Y-41948D01*
X56090Y-42136D01*
X56090Y-42376D01*
X56076Y-42376D01*
X56012Y-42375D01*
X55950Y-42437D01*
X55950Y-42650D01*
X55950Y-42700D01*
X55950Y-42800D01*
X55850Y-42800D01*
X55850Y-42700D01*
X55850Y-42437D01*
X55788Y-42375D01*
X55724Y-42376D01*
X55625Y-42376D01*
X55534Y-42414D01*
X55464Y-42484D01*
X55444Y-42532D01*
X55444Y-42412D01*
X55444Y-41589D01*
X55444Y-41412D01*
X55444Y-40589D01*
X55444Y-40412D01*
X55444Y-39589D01*
X55444Y-39412D01*
X55444Y-38589D01*
X55444Y-38412D01*
X55377Y-38249D01*
X55252Y-38124D01*
X55089Y-38056D01*
X54912Y-38056D01*
X54749Y-38123D01*
X54624Y-38248D01*
X54556Y-38411D01*
X54556Y-38588D01*
X54623Y-38751D01*
X54748Y-38876D01*
X54911Y-38944D01*
X55088Y-38944D01*
X55251Y-38877D01*
X55376Y-38752D01*
X55444Y-38589D01*
X55444Y-39412D01*
X55377Y-39249D01*
X55252Y-39124D01*
X55089Y-39056D01*
X54912Y-39056D01*
X54749Y-39123D01*
X54624Y-39248D01*
X54556Y-39411D01*
X54556Y-39588D01*
X54623Y-39751D01*
X54748Y-39876D01*
X54911Y-39944D01*
X55088Y-39944D01*
X55251Y-39877D01*
X55376Y-39752D01*
X55444Y-39589D01*
X55444Y-40412D01*
X55377Y-40249D01*
X55252Y-40124D01*
X55089Y-40056D01*
X54912Y-40056D01*
X54749Y-40123D01*
X54624Y-40248D01*
X54556Y-40411D01*
X54556Y-40588D01*
X54623Y-40751D01*
X54748Y-40876D01*
X54911Y-40944D01*
X55088Y-40944D01*
X55251Y-40877D01*
X55376Y-40752D01*
X55444Y-40589D01*
X55444Y-41412D01*
X55377Y-41249D01*
X55252Y-41124D01*
X55089Y-41056D01*
X54912Y-41056D01*
X54749Y-41123D01*
X54624Y-41248D01*
X54556Y-41411D01*
X54556Y-41588D01*
X54623Y-41751D01*
X54748Y-41876D01*
X54911Y-41944D01*
X55088Y-41944D01*
X55251Y-41877D01*
X55376Y-41752D01*
X55444Y-41589D01*
X55444Y-42412D01*
X55377Y-42249D01*
X55252Y-42124D01*
X55089Y-42056D01*
X54912Y-42056D01*
X54749Y-42123D01*
X54624Y-42248D01*
X54556Y-42411D01*
X54556Y-42588D01*
X54623Y-42751D01*
X54748Y-42876D01*
X54911Y-42944D01*
X55088Y-42944D01*
X55251Y-42877D01*
X55376Y-42752D01*
X55425Y-42634D01*
X55425Y-42638D01*
X55487Y-42700D01*
X55850Y-42700D01*
X55850Y-42800D01*
X55800Y-42800D01*
X55487Y-42800D01*
X55425Y-42862D01*
X55426Y-42924D01*
X55464Y-43016D01*
X55534Y-43086D01*
X55562Y-43097D01*
X55531Y-43129D01*
X55505Y-43191D01*
X55505Y-43259D01*
X55505Y-43509D01*
X55531Y-43571D01*
X55579Y-43619D01*
X55630Y-43640D01*
X55630Y-43650D01*
X55630Y-45200D01*
X55651Y-45303D01*
X55709Y-45391D01*
X55868Y-45550D01*
X55519Y-45550D01*
X55519Y-44574D01*
X55508Y-44370D01*
X55452Y-44233D01*
X55444Y-44230D01*
X55444Y-43589D01*
X55444Y-43412D01*
X55377Y-43249D01*
X55252Y-43124D01*
X55089Y-43056D01*
X54912Y-43056D01*
X54749Y-43123D01*
X54624Y-43248D01*
X54556Y-43411D01*
X54556Y-43588D01*
X54623Y-43751D01*
X54748Y-43876D01*
X54911Y-43944D01*
X55088Y-43944D01*
X55251Y-43877D01*
X55376Y-43752D01*
X55444Y-43589D01*
X55444Y-44230D01*
X55361Y-44210D01*
X55290Y-44281D01*
X55290Y-44139D01*
X55267Y-44048D01*
X55074Y-43981D01*
X54870Y-43992D01*
X54733Y-44048D01*
X54710Y-44139D01*
X55000Y-44429D01*
X55290Y-44139D01*
X55290Y-44281D01*
X55071Y-44500D01*
X55361Y-44790D01*
X55452Y-44767D01*
X55519Y-44574D01*
X55519Y-45550D01*
X55290Y-45550D01*
X55290Y-44861D01*
X55000Y-44571D01*
X54929Y-44642D01*
X54929Y-44500D01*
X54639Y-44210D01*
X54548Y-44233D01*
X54481Y-44426D01*
X54492Y-44630D01*
X54548Y-44767D01*
X54639Y-44790D01*
X54929Y-44500D01*
X54929Y-44642D01*
X54710Y-44861D01*
X54733Y-44952D01*
X54926Y-45019D01*
X55130Y-45008D01*
X55267Y-44952D01*
X55290Y-44861D01*
X55290Y-45550D01*
X54350Y-45550D01*
X54350Y-37032D01*
X54509Y-37191D01*
X54597Y-37249D01*
X54621Y-37253D01*
X54556Y-37411D01*
X54556Y-37588D01*
X54623Y-37751D01*
X54748Y-37876D01*
X54911Y-37944D01*
X55088Y-37944D01*
X55251Y-37877D01*
X55376Y-37752D01*
X55444Y-37589D01*
X55444Y-37412D01*
X55385Y-37270D01*
X55500Y-37270D01*
X55553Y-37259D01*
X55526Y-37326D01*
X55525Y-37388D01*
X55587Y-37450D01*
X55900Y-37450D01*
X55950Y-37450D01*
X56050Y-37450D01*
X56100Y-37450D01*
X56413Y-37450D01*
X56475Y-37388D01*
X56474Y-37326D01*
X56436Y-37234D01*
X56366Y-37164D01*
X56337Y-37152D01*
X56369Y-37121D01*
X56395Y-37059D01*
X56395Y-36991D01*
X56395Y-36741D01*
X56369Y-36679D01*
X56321Y-36631D01*
X56302Y-36623D01*
X56488Y-36436D01*
X56490Y-36435D01*
X56491Y-36435D01*
X56540Y-36360D01*
X56550Y-36309D01*
X56562Y-36309D01*
X56624Y-36283D01*
X56672Y-36235D01*
X56698Y-36173D01*
X56698Y-36105D01*
X56698Y-36099D01*
X57911Y-36099D01*
X58151Y-36099D01*
X58243Y-36137D01*
X58357Y-36137D01*
X58462Y-36093D01*
X58543Y-36013D01*
X58587Y-35907D01*
X58587Y-35793D01*
X58543Y-35688D01*
X58463Y-35607D01*
X58357Y-35563D01*
X58243Y-35563D01*
X58138Y-35607D01*
X58065Y-35679D01*
X58056Y-35679D01*
X58056Y-34555D01*
X58056Y-33835D01*
X57104Y-33835D01*
X57104Y-34555D01*
X58056Y-34555D01*
X58056Y-35679D01*
X57977Y-35679D01*
X57987Y-35657D01*
X57987Y-35543D01*
X57943Y-35438D01*
X57863Y-35357D01*
X57757Y-35313D01*
X57674Y-35313D01*
X57643Y-35238D01*
X57563Y-35157D01*
X57457Y-35113D01*
X57343Y-35113D01*
X57238Y-35157D01*
X57157Y-35237D01*
X57139Y-35279D01*
X57087Y-35279D01*
X57087Y-35193D01*
X57043Y-35088D01*
X56963Y-35007D01*
X56922Y-34989D01*
X56956Y-34956D01*
X57003Y-34884D01*
X57020Y-34800D01*
X57021Y-34800D01*
X57020Y-34795D01*
X57020Y-33800D01*
X57003Y-33716D01*
X57002Y-33715D01*
X56991Y-33698D01*
X56994Y-33698D01*
X57010Y-33691D01*
X57026Y-33698D01*
X57094Y-33698D01*
X57194Y-33698D01*
X57210Y-33691D01*
X57226Y-33698D01*
X57294Y-33698D01*
X57394Y-33698D01*
X57410Y-33691D01*
X57426Y-33698D01*
X57494Y-33698D01*
X57594Y-33698D01*
X57605Y-33693D01*
X57616Y-33698D01*
X57684Y-33698D01*
X57784Y-33698D01*
X57800Y-33691D01*
X57816Y-33698D01*
X57884Y-33698D01*
X57984Y-33698D01*
X58000Y-33691D01*
X58016Y-33698D01*
X58084Y-33698D01*
X58184Y-33698D01*
X58195Y-33693D01*
X58206Y-33698D01*
X58274Y-33698D01*
X58374Y-33698D01*
X58390Y-33691D01*
X58406Y-33698D01*
X58474Y-33698D01*
X58574Y-33698D01*
X58590Y-33691D01*
X58599Y-33695D01*
X58557Y-33737D01*
X58513Y-33843D01*
X58513Y-33957D01*
X58557Y-34062D01*
X58637Y-34143D01*
X58737Y-34184D01*
X58713Y-34243D01*
X58713Y-34357D01*
X58757Y-34462D01*
X58837Y-34543D01*
X58943Y-34587D01*
X59057Y-34587D01*
X59162Y-34543D01*
X59184Y-34521D01*
X59302Y-34521D01*
X59302Y-34595D01*
X59306Y-34606D01*
X59302Y-34617D01*
X59302Y-34685D01*
X59302Y-34785D01*
X59308Y-34801D01*
X59302Y-34817D01*
X59302Y-34881D01*
X59299Y-34881D01*
X59215Y-34898D01*
X59143Y-34945D01*
X59141Y-34947D01*
X58744Y-35344D01*
X58697Y-35416D01*
X58679Y-35500D01*
X58680Y-35504D01*
X58680Y-35895D01*
X58679Y-35900D01*
X58697Y-35984D01*
X58744Y-36056D01*
X58994Y-36306D01*
X58989Y-36308D01*
X58973Y-36302D01*
X58905Y-36302D01*
X58805Y-36302D01*
X58789Y-36308D01*
X58773Y-36302D01*
X58705Y-36302D01*
X58605Y-36302D01*
X58589Y-36308D01*
X58573Y-36302D01*
X58505Y-36302D01*
X58405Y-36302D01*
X58394Y-36306D01*
X58383Y-36302D01*
X58315Y-36302D01*
X58215Y-36302D01*
X58199Y-36308D01*
X58183Y-36302D01*
X58115Y-36302D01*
X58015Y-36302D01*
X57999Y-36308D01*
X57983Y-36302D01*
X57915Y-36302D01*
X57815Y-36302D01*
X57804Y-36306D01*
X57793Y-36302D01*
X57725Y-36302D01*
X57625Y-36302D01*
X57609Y-36308D01*
X57593Y-36302D01*
X57525Y-36302D01*
X57425Y-36302D01*
X57409Y-36308D01*
X57393Y-36302D01*
X57325Y-36302D01*
X57225Y-36302D01*
X57214Y-36306D01*
X57203Y-36302D01*
X57151Y-36302D01*
X57110Y-36261D01*
X57019Y-36223D01*
X57005Y-36223D01*
X56944Y-36284D01*
X56944Y-36357D01*
X56925Y-36376D01*
X56899Y-36438D01*
X56899Y-36506D01*
X56899Y-36722D01*
X56894Y-36722D01*
X56894Y-36622D01*
X56894Y-36284D01*
X56833Y-36223D01*
X56819Y-36223D01*
X56728Y-36261D01*
X56658Y-36331D01*
X56620Y-36423D01*
X56619Y-36560D01*
X56681Y-36622D01*
X56894Y-36622D01*
X56894Y-36722D01*
X56819Y-36722D01*
X56681Y-36722D01*
X56619Y-36784D01*
X56620Y-36921D01*
X56658Y-37013D01*
X56724Y-37079D01*
X56580Y-37224D01*
X56534Y-37291D01*
X56531Y-37304D01*
X56518Y-37372D01*
X56518Y-37380D01*
X56506Y-37392D01*
X56480Y-37454D01*
X56480Y-37522D01*
X56480Y-37876D01*
X56500Y-37923D01*
X56500Y-38076D01*
X56480Y-38124D01*
X56480Y-38192D01*
X56480Y-38546D01*
X56500Y-38594D01*
X56475Y-38619D01*
X56475Y-37612D01*
X56413Y-37550D01*
X56050Y-37550D01*
X56050Y-37813D01*
X56112Y-37875D01*
X56176Y-37874D01*
X56275Y-37874D01*
X56366Y-37836D01*
X56436Y-37766D01*
X56474Y-37674D01*
X56475Y-37612D01*
X56475Y-38619D01*
X56457Y-38637D01*
X56413Y-38743D01*
X56413Y-38857D01*
X56457Y-38962D01*
X56500Y-39005D01*
X56480Y-39054D01*
X56480Y-39122D01*
X56480Y-39476D01*
X56506Y-39538D01*
X56513Y-39545D01*
X56509Y-39547D01*
X56439Y-39617D01*
X56401Y-39708D01*
X56401Y-39807D01*
X56400Y-39823D01*
X56462Y-39885D01*
X56628Y-39885D01*
X56689Y-39885D01*
X56767Y-39885D01*
X56777Y-39885D01*
X56828Y-39885D01*
X56943Y-39885D01*
X56994Y-39885D01*
X57004Y-39885D01*
X57082Y-39885D01*
X57091Y-39885D01*
X57143Y-39885D01*
X57257Y-39885D01*
X57309Y-39885D01*
X57318Y-39885D01*
X57396Y-39885D01*
X57406Y-39885D01*
X57457Y-39885D01*
X57572Y-39885D01*
X57623Y-39885D01*
X57633Y-39885D01*
X57711Y-39885D01*
X57772Y-39885D01*
X57900Y-39885D01*
X57938Y-39885D01*
X58000Y-39823D01*
X58062Y-39885D01*
X58228Y-39885D01*
X58289Y-39885D01*
X58367Y-39885D01*
X58377Y-39885D01*
X58428Y-39885D01*
X58543Y-39885D01*
X58594Y-39885D01*
X58604Y-39885D01*
X58682Y-39885D01*
X58691Y-39885D01*
X58743Y-39885D01*
X58857Y-39885D01*
X58909Y-39885D01*
X58918Y-39885D01*
X58996Y-39885D01*
X59006Y-39885D01*
X59057Y-39885D01*
X59172Y-39885D01*
X59223Y-39885D01*
X59233Y-39885D01*
X59311Y-39885D01*
X59372Y-39885D01*
X59500Y-39885D01*
X59538Y-39885D01*
X59600Y-39823D01*
X59599Y-39807D01*
X59599Y-39708D01*
X59561Y-39617D01*
X59500Y-39556D01*
X59491Y-39547D01*
X59486Y-39545D01*
X59494Y-39538D01*
X59500Y-39523D01*
X59520Y-39476D01*
X59520Y-39408D01*
X59520Y-39054D01*
X59500Y-39006D01*
X59499Y-39005D01*
X59500Y-39005D01*
X59543Y-38963D01*
X59587Y-38857D01*
X59587Y-38743D01*
X59543Y-38638D01*
X59500Y-38594D01*
X59499Y-38594D01*
X59500Y-38593D01*
X59520Y-38546D01*
X59520Y-38478D01*
X59520Y-38124D01*
X59500Y-38076D01*
X59500Y-37923D01*
X59520Y-37876D01*
X59520Y-37808D01*
X59520Y-37454D01*
X59512Y-37437D01*
X59557Y-37437D01*
X59568Y-37431D01*
X59587Y-37450D01*
X59900Y-37450D01*
X59950Y-37450D01*
X60050Y-37450D01*
X60050Y-37550D01*
X60050Y-37600D01*
X60050Y-37813D01*
X60112Y-37875D01*
X60176Y-37874D01*
X60190Y-37874D01*
X60190Y-37900D01*
X60203Y-37967D01*
X60206Y-37981D01*
X60252Y-38048D01*
X60573Y-38369D01*
X60556Y-38411D01*
X60556Y-38588D01*
X60623Y-38751D01*
X60748Y-38876D01*
X60911Y-38944D01*
X61088Y-38944D01*
X61251Y-38877D01*
X61330Y-38798D01*
X61330Y-39202D01*
X61252Y-39124D01*
X61089Y-39056D01*
X60912Y-39056D01*
X60749Y-39123D01*
X60624Y-39248D01*
X60556Y-39411D01*
X60556Y-39588D01*
X60623Y-39751D01*
X60748Y-39876D01*
X60911Y-39944D01*
X61088Y-39944D01*
X61251Y-39877D01*
X61330Y-39798D01*
X61330Y-40202D01*
G54D10*
G36*
X61330Y-45230D02*
X59500Y-45230D01*
X59300Y-45230D01*
X57900Y-45230D01*
X57202Y-45230D01*
X56375Y-45230D01*
X56385Y-45220D01*
X56422Y-45220D01*
X56776Y-45220D01*
X56823Y-45200D01*
X56976Y-45200D01*
X57024Y-45220D01*
X57092Y-45220D01*
X57202Y-45220D01*
X57446Y-45220D01*
X57508Y-45194D01*
X57520Y-45182D01*
X57553Y-45182D01*
X57553Y-45181D01*
X57620Y-45168D01*
X57633Y-45166D01*
X57634Y-45166D01*
X57701Y-45120D01*
X57900Y-44921D01*
X58000Y-44821D01*
X58298Y-45120D01*
X58299Y-45120D01*
X58344Y-45150D01*
X58366Y-45165D01*
X58367Y-45166D01*
X58446Y-45181D01*
X58447Y-45182D01*
X58480Y-45182D01*
X58492Y-45194D01*
X58554Y-45220D01*
X58622Y-45220D01*
X58976Y-45220D01*
X59023Y-45200D01*
X59176Y-45200D01*
X59224Y-45220D01*
X59292Y-45220D01*
X59300Y-45220D01*
X59500Y-45220D01*
X59646Y-45220D01*
X59708Y-45194D01*
X59720Y-45182D01*
X60128Y-45182D01*
X60128Y-45181D01*
X60195Y-45168D01*
X60208Y-45166D01*
X60209Y-45166D01*
X60276Y-45120D01*
X60634Y-44762D01*
X60748Y-44876D01*
X60911Y-44944D01*
X61088Y-44944D01*
X61251Y-44877D01*
X61330Y-44798D01*
X61330Y-45230D01*
X61330Y-45230D01*
G37*
G54D28*
X61330Y-45230D02*
X59500Y-45230D01*
X59300Y-45230D01*
X57900Y-45230D01*
X57202Y-45230D01*
X56375Y-45230D01*
X56385Y-45220D01*
X56422Y-45220D01*
X56776Y-45220D01*
X56823Y-45200D01*
X56976Y-45200D01*
X57024Y-45220D01*
X57092Y-45220D01*
X57202Y-45220D01*
X57446Y-45220D01*
X57508Y-45194D01*
X57520Y-45182D01*
X57553Y-45182D01*
X57553Y-45181D01*
X57620Y-45168D01*
X57633Y-45166D01*
X57634Y-45166D01*
X57701Y-45120D01*
X57900Y-44921D01*
X58000Y-44821D01*
X58298Y-45120D01*
X58299Y-45120D01*
X58344Y-45150D01*
X58366Y-45165D01*
X58367Y-45166D01*
X58446Y-45181D01*
X58447Y-45182D01*
X58480Y-45182D01*
X58492Y-45194D01*
X58554Y-45220D01*
X58622Y-45220D01*
X58976Y-45220D01*
X59023Y-45200D01*
X59176Y-45200D01*
X59224Y-45220D01*
X59292Y-45220D01*
X59300Y-45220D01*
X59500Y-45220D01*
X59646Y-45220D01*
X59708Y-45194D01*
X59720Y-45182D01*
X60128Y-45182D01*
X60128Y-45181D01*
X60195Y-45168D01*
X60208Y-45166D01*
X60209Y-45166D01*
X60276Y-45120D01*
X60634Y-44762D01*
X60748Y-44876D01*
X60911Y-44944D01*
X61088Y-44944D01*
X61251Y-44877D01*
X61330Y-44798D01*
X61330Y-45230D01*
G54D10*
G36*
X61650Y-31768D02*
X61444Y-31562D01*
X61444Y-31412D01*
X61377Y-31249D01*
X61252Y-31124D01*
X61089Y-31056D01*
X60912Y-31056D01*
X60749Y-31123D01*
X60642Y-31230D01*
X60345Y-31230D01*
X60345Y-31184D01*
X60345Y-31116D01*
X60345Y-31000D01*
X60345Y-30816D01*
X60319Y-30754D01*
X60271Y-30706D01*
X60209Y-30680D01*
X60141Y-30680D01*
X59982Y-30680D01*
X59941Y-30639D01*
X59849Y-30601D01*
X59812Y-30600D01*
X59750Y-30662D01*
X59750Y-30900D01*
X59750Y-30950D01*
X59750Y-31050D01*
X59650Y-31050D01*
X59650Y-30950D01*
X59650Y-30900D01*
X59650Y-30662D01*
X59588Y-30600D01*
X59551Y-30601D01*
X59459Y-30639D01*
X59418Y-30680D01*
X59391Y-30680D01*
X59191Y-30680D01*
X59129Y-30706D01*
X59081Y-30754D01*
X59055Y-30816D01*
X59055Y-30884D01*
X59055Y-31000D01*
X59055Y-31184D01*
X59055Y-31225D01*
X59076Y-31328D01*
X59134Y-31416D01*
X59398Y-31680D01*
X59391Y-31680D01*
X59191Y-31680D01*
X59129Y-31706D01*
X59081Y-31754D01*
X59055Y-31816D01*
X59055Y-31884D01*
X59055Y-32073D01*
X58786Y-31804D01*
X58794Y-31796D01*
X58820Y-31734D01*
X58820Y-31666D01*
X58820Y-31266D01*
X58794Y-31204D01*
X58746Y-31156D01*
X58720Y-31145D01*
X58720Y-30550D01*
X58719Y-30549D01*
X58720Y-30549D01*
X58715Y-30528D01*
X58699Y-30450D01*
X61650Y-30450D01*
X61650Y-31768D01*
X61650Y-31768D01*
G37*
G54D28*
X61650Y-31768D02*
X61444Y-31562D01*
X61444Y-31412D01*
X61377Y-31249D01*
X61252Y-31124D01*
X61089Y-31056D01*
X60912Y-31056D01*
X60749Y-31123D01*
X60642Y-31230D01*
X60345Y-31230D01*
X60345Y-31184D01*
X60345Y-31116D01*
X60345Y-31000D01*
X60345Y-30816D01*
X60319Y-30754D01*
X60271Y-30706D01*
X60209Y-30680D01*
X60141Y-30680D01*
X59982Y-30680D01*
X59941Y-30639D01*
X59849Y-30601D01*
X59812Y-30600D01*
X59750Y-30662D01*
X59750Y-30900D01*
X59750Y-30950D01*
X59750Y-31050D01*
X59650Y-31050D01*
X59650Y-30950D01*
X59650Y-30900D01*
X59650Y-30662D01*
X59588Y-30600D01*
X59551Y-30601D01*
X59459Y-30639D01*
X59418Y-30680D01*
X59391Y-30680D01*
X59191Y-30680D01*
X59129Y-30706D01*
X59081Y-30754D01*
X59055Y-30816D01*
X59055Y-30884D01*
X59055Y-31000D01*
X59055Y-31184D01*
X59055Y-31225D01*
X59076Y-31328D01*
X59134Y-31416D01*
X59398Y-31680D01*
X59391Y-31680D01*
X59191Y-31680D01*
X59129Y-31706D01*
X59081Y-31754D01*
X59055Y-31816D01*
X59055Y-31884D01*
X59055Y-32073D01*
X58786Y-31804D01*
X58794Y-31796D01*
X58820Y-31734D01*
X58820Y-31666D01*
X58820Y-31266D01*
X58794Y-31204D01*
X58746Y-31156D01*
X58720Y-31145D01*
X58720Y-30550D01*
X58719Y-30549D01*
X58720Y-30549D01*
X58715Y-30528D01*
X58699Y-30450D01*
X61650Y-30450D01*
X61650Y-31768D01*
M02*
