G04 (created by PCBNEW-RS274X (2012-apr-16-27)-stable) date So 08 Sep 2013 13:16:25 CEST*
G01*
G70*
G90*
%MOIN*%
G04 Gerber Fmt 3.4, Leading zero omitted, Abs format*
%FSLAX34Y34*%
G04 APERTURE LIST*
%ADD10C,0.006000*%
%ADD11C,0.005000*%
%ADD12C,0.008000*%
%ADD13R,0.071000X0.071000*%
%ADD14C,0.071000*%
%ADD15R,0.036000X0.046000*%
%ADD16R,0.026000X0.056000*%
%ADD17R,0.056000X0.026000*%
%ADD18R,0.066000X0.031000*%
%ADD19R,0.056000X0.056000*%
%ADD20C,0.056000*%
%ADD21R,0.061000X0.041000*%
%ADD22R,0.031700X0.051400*%
%ADD23R,0.051400X0.031700*%
G04 APERTURE END LIST*
G54D10*
G54D11*
X60069Y-38536D02*
X60269Y-38536D01*
X60079Y-38536D02*
X60069Y-38517D01*
X60069Y-38479D01*
X60079Y-38460D01*
X60088Y-38451D01*
X60107Y-38441D01*
X60164Y-38441D01*
X60183Y-38451D01*
X60193Y-38460D01*
X60202Y-38479D01*
X60202Y-38517D01*
X60193Y-38536D01*
X60079Y-38708D02*
X60069Y-38689D01*
X60069Y-38651D01*
X60079Y-38632D01*
X60098Y-38622D01*
X60174Y-38622D01*
X60193Y-38632D01*
X60202Y-38651D01*
X60202Y-38689D01*
X60193Y-38708D01*
X60174Y-38717D01*
X60155Y-38717D01*
X60136Y-38622D01*
X60202Y-38784D02*
X60069Y-38831D01*
X60202Y-38879D01*
X60079Y-39031D02*
X60069Y-39012D01*
X60069Y-38974D01*
X60079Y-38955D01*
X60098Y-38945D01*
X60174Y-38945D01*
X60193Y-38955D01*
X60202Y-38974D01*
X60202Y-39012D01*
X60193Y-39031D01*
X60174Y-39040D01*
X60155Y-39040D01*
X60136Y-38945D01*
X60069Y-39154D02*
X60079Y-39135D01*
X60098Y-39126D01*
X60269Y-39126D01*
X60069Y-39259D02*
X60079Y-39240D01*
X60088Y-39231D01*
X60107Y-39221D01*
X60164Y-39221D01*
X60183Y-39231D01*
X60193Y-39240D01*
X60202Y-39259D01*
X60202Y-39288D01*
X60193Y-39307D01*
X60183Y-39316D01*
X60164Y-39326D01*
X60107Y-39326D01*
X60088Y-39316D01*
X60079Y-39307D01*
X60069Y-39288D01*
X60069Y-39259D01*
X60202Y-39412D02*
X60002Y-39412D01*
X60193Y-39412D02*
X60202Y-39431D01*
X60202Y-39469D01*
X60193Y-39488D01*
X60183Y-39497D01*
X60164Y-39507D01*
X60107Y-39507D01*
X60088Y-39497D01*
X60079Y-39488D01*
X60069Y-39469D01*
X60069Y-39431D01*
X60079Y-39412D01*
X60079Y-39669D02*
X60069Y-39650D01*
X60069Y-39612D01*
X60079Y-39593D01*
X60098Y-39583D01*
X60174Y-39583D01*
X60193Y-39593D01*
X60202Y-39612D01*
X60202Y-39650D01*
X60193Y-39669D01*
X60174Y-39678D01*
X60155Y-39678D01*
X60136Y-39583D01*
X60069Y-39849D02*
X60269Y-39849D01*
X60079Y-39849D02*
X60069Y-39830D01*
X60069Y-39792D01*
X60079Y-39773D01*
X60088Y-39764D01*
X60107Y-39754D01*
X60164Y-39754D01*
X60183Y-39764D01*
X60193Y-39773D01*
X60202Y-39792D01*
X60202Y-39830D01*
X60193Y-39849D01*
X59739Y-38162D02*
X59939Y-38162D01*
X59863Y-38162D02*
X59872Y-38181D01*
X59872Y-38219D01*
X59863Y-38238D01*
X59853Y-38247D01*
X59834Y-38257D01*
X59777Y-38257D01*
X59758Y-38247D01*
X59749Y-38238D01*
X59739Y-38219D01*
X59739Y-38181D01*
X59749Y-38162D01*
X59872Y-38324D02*
X59739Y-38371D01*
X59872Y-38419D02*
X59739Y-38371D01*
X59691Y-38352D01*
X59682Y-38343D01*
X59672Y-38324D01*
X59749Y-38637D02*
X59739Y-38656D01*
X59739Y-38694D01*
X59749Y-38713D01*
X59768Y-38723D01*
X59777Y-38723D01*
X59796Y-38713D01*
X59806Y-38694D01*
X59806Y-38666D01*
X59815Y-38647D01*
X59834Y-38637D01*
X59844Y-38637D01*
X59863Y-38647D01*
X59872Y-38666D01*
X59872Y-38694D01*
X59863Y-38713D01*
X59739Y-38809D02*
X59939Y-38809D01*
X59815Y-38828D02*
X59739Y-38885D01*
X59872Y-38885D02*
X59796Y-38809D01*
X59739Y-38999D02*
X59749Y-38980D01*
X59758Y-38971D01*
X59777Y-38961D01*
X59834Y-38961D01*
X59853Y-38971D01*
X59863Y-38980D01*
X59872Y-38999D01*
X59872Y-39028D01*
X59863Y-39047D01*
X59853Y-39056D01*
X59834Y-39066D01*
X59777Y-39066D01*
X59758Y-39056D01*
X59749Y-39047D01*
X59739Y-39028D01*
X59739Y-38999D01*
X59749Y-39228D02*
X59739Y-39209D01*
X59739Y-39171D01*
X59749Y-39152D01*
X59768Y-39142D01*
X59844Y-39142D01*
X59863Y-39152D01*
X59872Y-39171D01*
X59872Y-39209D01*
X59863Y-39228D01*
X59844Y-39237D01*
X59825Y-39237D01*
X59806Y-39142D01*
X59920Y-39465D02*
X59930Y-39475D01*
X59939Y-39494D01*
X59939Y-39541D01*
X59930Y-39560D01*
X59920Y-39570D01*
X59901Y-39579D01*
X59882Y-39579D01*
X59853Y-39570D01*
X59739Y-39456D01*
X59739Y-39579D01*
X59939Y-39703D02*
X59939Y-39722D01*
X59930Y-39741D01*
X59920Y-39750D01*
X59901Y-39760D01*
X59863Y-39769D01*
X59815Y-39769D01*
X59777Y-39760D01*
X59758Y-39750D01*
X59749Y-39741D01*
X59739Y-39722D01*
X59739Y-39703D01*
X59749Y-39684D01*
X59758Y-39674D01*
X59777Y-39665D01*
X59815Y-39655D01*
X59863Y-39655D01*
X59901Y-39665D01*
X59920Y-39674D01*
X59930Y-39684D01*
X59939Y-39703D01*
X59739Y-39959D02*
X59739Y-39845D01*
X59739Y-39902D02*
X59939Y-39902D01*
X59910Y-39883D01*
X59891Y-39864D01*
X59882Y-39845D01*
X59920Y-40035D02*
X59930Y-40045D01*
X59939Y-40064D01*
X59939Y-40111D01*
X59930Y-40130D01*
X59920Y-40140D01*
X59901Y-40149D01*
X59882Y-40149D01*
X59853Y-40140D01*
X59739Y-40026D01*
X59739Y-40149D01*
X57857Y-32781D02*
X57743Y-32781D01*
X57800Y-32781D02*
X57800Y-32581D01*
X57781Y-32610D01*
X57762Y-32629D01*
X57743Y-32638D01*
X58085Y-32571D02*
X57914Y-32829D01*
X58248Y-32581D02*
X58153Y-32581D01*
X58143Y-32676D01*
X58153Y-32667D01*
X58172Y-32657D01*
X58219Y-32657D01*
X58238Y-32667D01*
X58248Y-32676D01*
X58257Y-32695D01*
X58257Y-32743D01*
X58248Y-32762D01*
X58238Y-32771D01*
X58219Y-32781D01*
X58172Y-32781D01*
X58153Y-32771D01*
X58143Y-32762D01*
G54D12*
X55788Y-38130D02*
X56055Y-38130D01*
X55979Y-38130D02*
X56017Y-38149D01*
X56036Y-38168D01*
X56055Y-38206D01*
X56055Y-38245D01*
X55807Y-38531D02*
X55788Y-38493D01*
X55788Y-38416D01*
X55807Y-38378D01*
X55845Y-38359D01*
X55998Y-38359D01*
X56036Y-38378D01*
X56055Y-38416D01*
X56055Y-38493D01*
X56036Y-38531D01*
X55998Y-38550D01*
X55960Y-38550D01*
X55921Y-38359D01*
X55788Y-38893D02*
X55998Y-38893D01*
X56036Y-38874D01*
X56055Y-38836D01*
X56055Y-38759D01*
X56036Y-38721D01*
X55807Y-38893D02*
X55788Y-38855D01*
X55788Y-38759D01*
X55807Y-38721D01*
X55845Y-38702D01*
X55883Y-38702D01*
X55921Y-38721D01*
X55940Y-38759D01*
X55940Y-38855D01*
X55960Y-38893D01*
X55788Y-39140D02*
X55807Y-39102D01*
X55845Y-39083D01*
X56188Y-39083D01*
X55788Y-39293D02*
X56188Y-39293D01*
X56188Y-39446D01*
X56169Y-39484D01*
X56150Y-39503D01*
X56112Y-39522D01*
X56055Y-39522D01*
X56017Y-39503D01*
X55998Y-39484D01*
X55979Y-39446D01*
X55979Y-39293D01*
X55788Y-39884D02*
X55788Y-39693D01*
X56188Y-39693D01*
X55902Y-39998D02*
X55902Y-40189D01*
X55788Y-39960D02*
X56188Y-40093D01*
X55788Y-40227D01*
G54D13*
X55000Y-31500D03*
G54D14*
X55000Y-32500D03*
X55000Y-33500D03*
X55000Y-34500D03*
X55000Y-35500D03*
X55000Y-36500D03*
X55000Y-37500D03*
X55000Y-38500D03*
X55000Y-39500D03*
X55000Y-40500D03*
X55000Y-41500D03*
X55000Y-42500D03*
X55000Y-43500D03*
X55000Y-44500D03*
X61000Y-44500D03*
X61000Y-43500D03*
X61000Y-42500D03*
X61000Y-41500D03*
X61000Y-40500D03*
X61000Y-39500D03*
X61000Y-38500D03*
X61000Y-37500D03*
X61000Y-36500D03*
X61000Y-35500D03*
X61000Y-34500D03*
X61000Y-33500D03*
X61000Y-32500D03*
X61000Y-31500D03*
G54D15*
X60075Y-31000D03*
X59325Y-31000D03*
X60075Y-32000D03*
X59700Y-31000D03*
X59325Y-32000D03*
G54D16*
X59080Y-33328D03*
X58880Y-33328D03*
X58690Y-33328D03*
X58490Y-33328D03*
X58290Y-33328D03*
X58100Y-33328D03*
X57900Y-33328D03*
X57700Y-33328D03*
X57510Y-33328D03*
X57310Y-33328D03*
X57110Y-33328D03*
X56910Y-33328D03*
G54D17*
X59672Y-36081D03*
X59672Y-35881D03*
X59672Y-35691D03*
X59672Y-35491D03*
X59672Y-35291D03*
X59672Y-35101D03*
X59672Y-34901D03*
X59672Y-34701D03*
X59672Y-34511D03*
X59672Y-34311D03*
X59672Y-34111D03*
X59672Y-33911D03*
X56328Y-33919D03*
X56328Y-34119D03*
X56328Y-34309D03*
X56328Y-34509D03*
X56328Y-34709D03*
X56328Y-34899D03*
X56328Y-35099D03*
X56328Y-35299D03*
X56328Y-35489D03*
X56328Y-35689D03*
X56328Y-35889D03*
X56328Y-36089D03*
G54D16*
X56919Y-36672D03*
X57119Y-36672D03*
X57309Y-36672D03*
X57509Y-36672D03*
X57709Y-36672D03*
X57899Y-36672D03*
X58099Y-36672D03*
X58299Y-36672D03*
X58489Y-36672D03*
X58689Y-36672D03*
X58889Y-36672D03*
X59089Y-36672D03*
G54D18*
X56898Y-43352D03*
X56898Y-41048D03*
X59102Y-43352D03*
X59102Y-41048D03*
X59102Y-43096D03*
X59102Y-42840D03*
X59102Y-42584D03*
X59102Y-42328D03*
X59102Y-42072D03*
X59102Y-41816D03*
X59102Y-41560D03*
X59102Y-41304D03*
X56898Y-41304D03*
X56898Y-41560D03*
X56898Y-41816D03*
X56898Y-42072D03*
X56898Y-42328D03*
X56898Y-42584D03*
X56898Y-42840D03*
X56898Y-43096D03*
G54D19*
X58450Y-31500D03*
G54D20*
X57950Y-31500D03*
X57450Y-31500D03*
X56950Y-31500D03*
X56450Y-31500D03*
X55950Y-31500D03*
G54D21*
X60000Y-36900D03*
X60000Y-37500D03*
X55900Y-43350D03*
X55900Y-42750D03*
X60000Y-32450D03*
X60000Y-33050D03*
G54D22*
X56728Y-39935D03*
X57043Y-39935D03*
X57672Y-39935D03*
X57357Y-39935D03*
X57357Y-39265D03*
X57672Y-39265D03*
X57043Y-39265D03*
X56728Y-39265D03*
X58328Y-39935D03*
X58643Y-39935D03*
X59272Y-39935D03*
X58957Y-39935D03*
X58957Y-39265D03*
X59272Y-39265D03*
X58643Y-39265D03*
X58328Y-39265D03*
X57672Y-37665D03*
X57357Y-37665D03*
X56728Y-37665D03*
X57043Y-37665D03*
X57043Y-38335D03*
X56728Y-38335D03*
X57357Y-38335D03*
X57672Y-38335D03*
X59272Y-37665D03*
X58957Y-37665D03*
X58328Y-37665D03*
X58643Y-37665D03*
X58643Y-38335D03*
X58328Y-38335D03*
X58957Y-38335D03*
X59272Y-38335D03*
G54D23*
X56565Y-44028D03*
X56565Y-44343D03*
X56565Y-44972D03*
X56565Y-44657D03*
X57235Y-44657D03*
X57235Y-44972D03*
X57235Y-44343D03*
X57235Y-44028D03*
X58765Y-44028D03*
X58765Y-44343D03*
X58765Y-44972D03*
X58765Y-44657D03*
X59435Y-44657D03*
X59435Y-44972D03*
X59435Y-44343D03*
X59435Y-44028D03*
G54D21*
X56000Y-33050D03*
X56000Y-32450D03*
X56000Y-36900D03*
X56000Y-37500D03*
M02*
